<svg id="Group_2" data-name="Group 2" xmlns="http://www.w3.org/2000/svg" xmlns:xlink="http://www.w3.org/1999/xlink" width="236.861" height="122.189" viewBox="0 0 236.861 122.189">
  <defs>
    <clipPath id="clip-path">
      <rect id="Rectangle_9" data-name="Rectangle 9" width="236.861" height="122.189" fill="none"/>
    </clipPath>
  </defs>
  <g id="Group_1" data-name="Group 1" clip-path="url(#clip-path)">
    <path id="Path_1" data-name="Path 1" d="M7.029,51.6V42.644L2.737,38.352V2.708H16.084L21.078,9.5v8.657L31.966,33.819l2.845-4.079" transform="translate(-0.852 -0.843)" fill="none" stroke="#000" stroke-width="2.08"/>
    <path id="Path_2" data-name="Path 2" d="M10,72.853a1.885,1.885,0,1,1-1.885-1.885A1.885,1.885,0,0,1,10,72.853" transform="translate(-1.94 -22.094)"/>
    <path id="Path_3" data-name="Path 3" d="M50,42.185a1.885,1.885,0,1,0-2.625.468A1.886,1.886,0,0,0,50,42.185" transform="translate(-14.499 -12.211)"/>
    <path id="Path_4" data-name="Path 4" d="M8.97,38.5V8.346l6.311.114,3.2,4" transform="translate(-2.792 -2.598)" fill="none" stroke="#000" stroke-width="2.08"/>
    <path id="Path_5" data-name="Path 5" d="M10,51.273a1.885,1.885,0,1,1-1.885-1.885A1.885,1.885,0,0,1,10,51.273" transform="translate(-1.94 -15.376)"/>
    <path id="Path_6" data-name="Path 6" d="M20.458,14.648A1.885,1.885,0,1,0,20.752,12a1.885,1.885,0,0,0-.294,2.649" transform="translate(-6.241 -3.607)"/>
    <path id="Path_7" data-name="Path 7" d="M2.737,48.272v10H11.6V13.546L32.034,43.21l7.7-11.077L38,26.928,51.39,8.548h5.547" transform="translate(-0.852 -2.661)" fill="none" stroke="#000" stroke-width="2.08"/>
    <path id="Path_8" data-name="Path 8" d="M0,65.378a1.885,1.885,0,1,1,1.885,1.885A1.885,1.885,0,0,1,0,65.378" transform="translate(0 -19.767)"/>
    <path id="Path_9" data-name="Path 9" d="M80.588,9.581A1.885,1.885,0,1,0,78.7,7.7a1.885,1.885,0,0,0,1.885,1.885" transform="translate(-24.502 -1.809)"/>
    <path id="Path_10" data-name="Path 10" d="M35.4,16.026l6.8,9.985L59.748,2.536H71.409l.114,6.974L67.179,13.4V31.459" transform="translate(-11.02 -0.79)" fill="none" stroke="#000" stroke-width="2.08"/>
    <path id="Path_11" data-name="Path 11" d="M32.988,22.333a1.885,1.885,0,1,1,2.619.5,1.885,1.885,0,0,1-2.619-.5" transform="translate(-10.168 -6.035)"/>
    <path id="Path_12" data-name="Path 12" d="M78.809,43.682A1.885,1.885,0,1,0,80.694,41.8a1.885,1.885,0,0,0-1.885,1.885" transform="translate(-24.535 -13.012)"/>
    <path id="Path_13" data-name="Path 13" d="M74.978,55.68V42.907l-4.293-4.292L70.8,15.806,61.626,29.123" transform="translate(-19.185 -4.921)" fill="none" stroke="#000" stroke-width="2.08"/>
    <path id="Path_14" data-name="Path 14" d="M82.047,72.853a1.885,1.885,0,1,1-1.885-1.885,1.885,1.885,0,0,1,1.885,1.885" transform="translate(-24.369 -22.094)"/>
    <path id="Path_15" data-name="Path 15" d="M59.222,33.222a1.885,1.885,0,1,0,2.622-.483,1.886,1.886,0,0,0-2.622.483" transform="translate(-18.333 -10.089)"/>
    <path id="Path_16" data-name="Path 16" d="M74.781,47.212V62.547h8.864V22.29" transform="translate(-23.281 -6.939)" fill="none" stroke="#000" stroke-width="2.08"/>
    <path id="Path_17" data-name="Path 17" d="M72.044,57.626a1.885,1.885,0,1,1,1.885,1.885,1.885,1.885,0,0,1-1.885-1.885" transform="translate(-22.429 -17.353)"/>
    <path id="Path_18" data-name="Path 18" d="M88.686,21.438A1.885,1.885,0,1,0,86.8,23.323a1.885,1.885,0,0,0,1.885-1.885" transform="translate(-26.436 -6.087)"/>
    <path id="Path_19" data-name="Path 19" d="M108.037,2.737h-7.3V17.423l4.844,4.915V46.63l4.538,5.576h14.745" transform="translate(-31.361 -0.852)" fill="none" stroke="#000" stroke-width="2.08"/>
    <path id="Path_20" data-name="Path 20" d="M110.486,0A1.885,1.885,0,1,1,108.6,1.885,1.885,1.885,0,0,1,110.486,0" transform="translate(-33.81)"/>
    <path id="Path_21" data-name="Path 21" d="M134.917,75.6a1.885,1.885,0,1,0-1.885-1.885,1.885,1.885,0,0,0,1.885,1.885" transform="translate(-41.416 -22.363)"/>
    <path id="Path_22" data-name="Path 22" d="M106.967,15.5V7.153l5.279.114,4.233-4.53h30.834v8.92H111.679V24.606h29.208v8.98H125.1l-4.253-4.159h-8.6" transform="translate(-33.301 -0.852)" fill="none" stroke="#000" stroke-width="2.08"/>
    <path id="Path_23" data-name="Path 23" d="M108,20.414a1.885,1.885,0,1,1-1.885-1.885A1.885,1.885,0,0,1,108,20.414" transform="translate(-32.449 -5.768)"/>
    <path id="Path_24" data-name="Path 24" d="M113.78,38.755a1.885,1.885,0,1,0,1.885,1.885,1.885,1.885,0,0,0-1.885-1.885" transform="translate(-34.835 -12.065)"/>
    <line id="Line_3" data-name="Line 3" x1="8.602" transform="translate(94.919 28.48)" fill="none" stroke="#000" stroke-width="2.08"/>
    <path id="Path_25" data-name="Path 25" d="M149.465,38.618A1.885,1.885,0,1,1,147.58,40.5a1.885,1.885,0,0,1,1.885-1.885" transform="translate(-45.945 -12.023)"/>
    <path id="Path_26" data-name="Path 26" d="M136.976,38.618a1.885,1.885,0,1,0,1.885,1.885,1.885,1.885,0,0,0-1.885-1.885" transform="translate(-42.057 -12.023)"/>
    <path id="Path_27" data-name="Path 27" d="M120.91,48.355h-6.758V59.509l2.206,2.363h16.084l4.253,4.065h8.98" transform="translate(-35.538 -15.054)" fill="none" stroke="#000" stroke-width="2.08"/>
    <path id="Path_28" data-name="Path 28" d="M123.113,45.618a1.885,1.885,0,1,1-1.885,1.885,1.885,1.885,0,0,1,1.885-1.885" transform="translate(-37.741 -14.202)"/>
    <path id="Path_29" data-name="Path 29" d="M159.073,74.917a1.885,1.885,0,1,0-1.885-1.885,1.885,1.885,0,0,0,1.885,1.885" transform="translate(-48.936 -22.15)"/>
    <line id="Line_4" data-name="Line 4" x1="24.67" transform="translate(85.278 5.984)" fill="none" stroke="#000" stroke-width="2.08"/>
    <path id="Path_30" data-name="Path 30" d="M158.8,5.952a1.885,1.885,0,1,1-1.885,1.885A1.885,1.885,0,0,1,158.8,5.952" transform="translate(-48.85 -1.853)"/>
    <path id="Path_31" data-name="Path 31" d="M122.976,5.952a1.885,1.885,0,1,0,1.885,1.885,1.885,1.885,0,0,0-1.885-1.885" transform="translate(-37.698 -1.853)"/>
    <path id="Path_32" data-name="Path 32" d="M100.735,33.564v24.8l6.83,7.7,38.376-.1V56.605H134.22" transform="translate(-31.361 -10.449)" fill="none" stroke="#000" stroke-width="2.08"/>
    <path id="Path_33" data-name="Path 33" d="M98,32.712A1.885,1.885,0,1,1,99.883,34.6,1.885,1.885,0,0,1,98,32.712" transform="translate(-30.509 -9.597)"/>
    <path id="Path_34" data-name="Path 34" d="M148.5,64.284a1.885,1.885,0,1,0,1.885,1.885,1.885,1.885,0,0,0-1.885-1.885" transform="translate(-45.646 -20.013)"/>
    <path id="Path_35" data-name="Path 35" d="M183.548,51.6V42.644l-4.293-4.293V2.708H192.6L197.6,9.5v8.218l10.888,15.7,2.845-3.161" transform="translate(-55.806 -0.843)" fill="none" stroke="#000" stroke-width="2.08"/>
    <path id="Path_36" data-name="Path 36" d="M186.522,72.853a1.885,1.885,0,1,1-1.885-1.885,1.885,1.885,0,0,1,1.885,1.885" transform="translate(-56.895 -22.094)"/>
    <path id="Path_37" data-name="Path 37" d="M226.38,43.114a1.885,1.885,0,1,0-2.662.14,1.886,1.886,0,0,0,2.662-.14" transform="translate(-69.454 -12.443)"/>
    <path id="Path_38" data-name="Path 38" d="M185.489,38.5V8.346l6.311.114,3.2,4" transform="translate(-57.747 -2.598)" fill="none" stroke="#000" stroke-width="2.08"/>
    <path id="Path_39" data-name="Path 39" d="M186.522,51.273a1.885,1.885,0,1,1-1.885-1.885,1.885,1.885,0,0,1,1.885,1.885" transform="translate(-56.895 -15.376)"/>
    <path id="Path_40" data-name="Path 40" d="M196.977,14.648A1.885,1.885,0,1,0,197.271,12a1.885,1.885,0,0,0-.294,2.649" transform="translate(-61.195 -3.607)"/>
    <path id="Path_41" data-name="Path 41" d="M179.256,48.272v10h8.864V13.546l20.432,30.341,7.98-10.786-2.016-6.927L227.909,8.548h5.547" transform="translate(-55.806 -2.661)" fill="none" stroke="#000" stroke-width="2.08"/>
    <path id="Path_42" data-name="Path 42" d="M176.519,65.378a1.885,1.885,0,1,1,1.885,1.885,1.885,1.885,0,0,1-1.885-1.885" transform="translate(-54.954 -19.767)"/>
    <path id="Path_43" data-name="Path 43" d="M257.107,9.581A1.885,1.885,0,1,0,255.222,7.7a1.885,1.885,0,0,0,1.885,1.885" transform="translate(-79.456 -1.809)"/>
    <path id="Path_44" data-name="Path 44" d="M211.917,16.026l6.8,9.985L236.267,2.536h11.661l.114,6.974L243.7,13.4V31.459" transform="translate(-65.974 -0.79)" fill="none" stroke="#000" stroke-width="2.08"/>
    <path id="Path_45" data-name="Path 45" d="M209.507,22.333a1.885,1.885,0,1,1,2.619.5,1.885,1.885,0,0,1-2.619-.5" transform="translate(-65.122 -6.035)"/>
    <path id="Path_46" data-name="Path 46" d="M255.328,43.682a1.885,1.885,0,1,0,1.885-1.885,1.885,1.885,0,0,0-1.885,1.885" transform="translate(-79.489 -13.012)"/>
    <path id="Path_47" data-name="Path 47" d="M251.445,56.2V43.427l-4.293-4.292V17.476l-9.174,11.889" transform="translate(-74.088 -5.441)" fill="none" stroke="#000" stroke-width="2.08"/>
    <path id="Path_48" data-name="Path 48" d="M258.566,72.853a1.885,1.885,0,1,1-1.885-1.885,1.885,1.885,0,0,1,1.885,1.885" transform="translate(-79.324 -22.094)"/>
    <path id="Path_49" data-name="Path 49" d="M235.635,32.736a1.885,1.885,0,1,0,2.644-.341,1.885,1.885,0,0,0-2.644.341" transform="translate(-73.236 -9.963)"/>
    <path id="Path_50" data-name="Path 50" d="M251.3,47.212V62.547h8.864V22.29" transform="translate(-78.235 -6.939)" fill="none" stroke="#000" stroke-width="2.08"/>
    <path id="Path_51" data-name="Path 51" d="M248.563,57.626a1.885,1.885,0,1,1,1.885,1.885,1.885,1.885,0,0,1-1.885-1.885" transform="translate(-77.383 -17.353)"/>
    <path id="Path_52" data-name="Path 52" d="M265.2,21.438a1.885,1.885,0,1,0-1.885,1.885,1.885,1.885,0,0,0,1.885-1.885" transform="translate(-81.39 -6.087)"/>
    <path id="Path_53" data-name="Path 53" d="M284.556,2.737h-7.3V17.423l4.844,4.915V46.63l4.537,5.576h14.746" transform="translate(-86.315 -0.852)" fill="none" stroke="#000" stroke-width="2.08"/>
    <path id="Path_54" data-name="Path 54" d="M287,0a1.885,1.885,0,1,1-1.885,1.885A1.885,1.885,0,0,1,287,0" transform="translate(-88.764)"/>
    <path id="Path_55" data-name="Path 55" d="M311.436,75.6a1.885,1.885,0,1,0-1.885-1.885,1.885,1.885,0,0,0,1.885,1.885" transform="translate(-96.37 -22.363)"/>
    <path id="Path_56" data-name="Path 56" d="M283.487,15.5V7.153l5.279.114L293,2.737h30.833v8.92H288.2V24.606h29.208v8.98H301.62l-4.253-4.159h-8.6" transform="translate(-88.256 -0.852)" fill="none" stroke="#000" stroke-width="2.08"/>
    <path id="Path_57" data-name="Path 57" d="M284.52,20.414a1.885,1.885,0,1,1-1.885-1.885,1.885,1.885,0,0,1,1.885,1.885" transform="translate(-87.404 -5.768)"/>
    <path id="Path_58" data-name="Path 58" d="M290.3,38.755a1.885,1.885,0,1,0,1.885,1.885,1.885,1.885,0,0,0-1.885-1.885" transform="translate(-89.79 -12.065)"/>
    <line id="Line_5" data-name="Line 5" x1="8.602" transform="translate(216.483 28.48)" fill="none" stroke="#000" stroke-width="2.08"/>
    <path id="Path_59" data-name="Path 59" d="M325.984,38.618A1.885,1.885,0,1,1,324.1,40.5a1.885,1.885,0,0,1,1.885-1.885" transform="translate(-100.899 -12.023)"/>
    <path id="Path_60" data-name="Path 60" d="M313.495,38.618A1.885,1.885,0,1,0,315.38,40.5a1.885,1.885,0,0,0-1.885-1.885" transform="translate(-97.011 -12.023)"/>
    <path id="Path_61" data-name="Path 61" d="M297.429,48.355h-6.758V59.509l2.206,2.363h16.084l4.253,4.065h8.98" transform="translate(-90.492 -15.054)" fill="none" stroke="#000" stroke-width="2.08"/>
    <path id="Path_62" data-name="Path 62" d="M299.632,45.618a1.885,1.885,0,1,1-1.885,1.885,1.885,1.885,0,0,1,1.885-1.885" transform="translate(-92.695 -14.202)"/>
    <path id="Path_63" data-name="Path 63" d="M335.592,74.917a1.885,1.885,0,1,0-1.885-1.885,1.885,1.885,0,0,0,1.885,1.885" transform="translate(-103.89 -22.15)"/>
    <line id="Line_6" data-name="Line 6" x1="24.67" transform="translate(206.843 5.984)" fill="none" stroke="#000" stroke-width="2.08"/>
    <path id="Path_64" data-name="Path 64" d="M335.317,5.952a1.885,1.885,0,1,1-1.885,1.885,1.885,1.885,0,0,1,1.885-1.885" transform="translate(-103.805 -1.853)"/>
    <path id="Path_65" data-name="Path 65" d="M299.495,5.952a1.885,1.885,0,1,0,1.885,1.885,1.885,1.885,0,0,0-1.885-1.885" transform="translate(-92.652 -1.853)"/>
    <path id="Path_66" data-name="Path 66" d="M277.254,33.564v24.8l6.83,7.7,38.376-.1V56.605H310.739" transform="translate(-86.315 -10.449)" fill="none" stroke="#000" stroke-width="2.08"/>
    <path id="Path_67" data-name="Path 67" d="M274.517,32.712A1.885,1.885,0,1,1,276.4,34.6a1.885,1.885,0,0,1-1.885-1.885" transform="translate(-85.463 -9.597)"/>
    <path id="Path_68" data-name="Path 68" d="M325.024,64.284a1.885,1.885,0,1,0,1.885,1.885,1.885,1.885,0,0,0-1.885-1.885" transform="translate(-100.6 -20.013)"/>
    <path id="Path_69" data-name="Path 69" d="M14.9,129.392h-2.08l-6.708-7.354v-17.8l7.482-6.777H53.107l9.16,9.228L56.59,112.62l-6.58-6.451H46.382" transform="translate(-1.902 -30.34)" fill="none" stroke="#000" stroke-width="2.08"/>
    <path id="Path_70" data-name="Path 70" d="M17.881,141.091A1.885,1.885,0,1,1,16,142.976a1.885,1.885,0,0,1,1.885-1.885" transform="translate(-4.98 -43.925)"/>
    <path id="Path_71" data-name="Path 71" d="M63.873,107.371a1.885,1.885,0,1,0,1.885,1.885,1.885,1.885,0,0,0-1.885-1.885" transform="translate(-19.298 -33.427)"/>
    <path id="Path_72" data-name="Path 72" d="M24.775,103.424H16.5l-4.773,4.732V122.09l4.257,5.16H31.5l3.935,3.935H51.5l1.29,1.613v10.45h-5.16l-3.742,5.269H17.019l-4.552-3.744" transform="translate(-3.652 -32.198)" fill="none" stroke="#000" stroke-width="2.08"/>
    <path id="Path_73" data-name="Path 73" d="M29.683,100.687a1.885,1.885,0,1,1-1.885,1.885,1.885,1.885,0,0,1,1.885-1.885" transform="translate(-8.654 -31.346)"/>
    <path id="Path_74" data-name="Path 74" d="M13.251,161.243a1.885,1.885,0,1,0,.258,2.653,1.886,1.886,0,0,0-.258-2.653" transform="translate(-3.166 -50.065)"/>
    <path id="Path_75" data-name="Path 75" d="M36.4,159.664H14.864l-6.133-5.837L2.737,160.1l8.386,8.768H52.444l6.967-6.058v-6.724" transform="translate(-0.852 -47.89)" fill="none" stroke="#000" stroke-width="2.08"/>
    <path id="Path_76" data-name="Path 76" d="M50.625,159.566a1.885,1.885,0,1,1-1.885,1.885,1.885,1.885,0,0,1,1.885-1.885" transform="translate(-15.174 -49.676)"/>
    <path id="Path_77" data-name="Path 77" d="M86.063,156.391a1.885,1.885,0,1,0-1.885,1.885,1.885,1.885,0,0,0,1.885-1.885" transform="translate(-25.62 -48.101)"/>
    <path id="Path_78" data-name="Path 78" d="M58.968,107.7l-3.49-3.4H46.06l-4.129,4.644H20.35l-2.064,1.678v9.546l2.064,2.193H56.123l8.128,6.838v5.289l-4.386,3.226v7.1l-3.87,3.979H53.269" transform="translate(-5.693 -32.471)" fill="none" stroke="#000" stroke-width="2.08"/>
    <path id="Path_79" data-name="Path 79" d="M77.724,106.933a1.885,1.885,0,1,1-2.666.036,1.886,1.886,0,0,1,2.666-.036" transform="translate(-23.201 -33.124)"/>
    <path id="Path_80" data-name="Path 80" d="M68.369,166.164a1.885,1.885,0,1,0,1.885,1.885,1.885,1.885,0,0,0-1.885-1.885" transform="translate(-20.698 -51.73)"/>
    <path id="Path_81" data-name="Path 81" d="M49.552,137.024H64.567l4.029,3.509" transform="translate(-15.427 -42.658)" fill="none" stroke="#000" stroke-width="2.08"/>
    <path id="Path_82" data-name="Path 82" d="M48.837,138.057a1.885,1.885,0,1,1,1.885-1.885,1.885,1.885,0,0,1-1.885,1.885" transform="translate(-14.617 -41.806)"/>
    <path id="Path_83" data-name="Path 83" d="M75.012,142.6a1.885,1.885,0,1,0-.183-2.66,1.885,1.885,0,0,0,.183,2.66" transform="translate(-23.151 -43.365)"/>
    <path id="Path_84" data-name="Path 84" d="M179.256,105.628V97.457h40.776l4.014,4.813h7.428" transform="translate(-55.806 -30.341)" fill="none" stroke="#000" stroke-width="2.08"/>
    <path id="Path_85" data-name="Path 85" d="M180.289,108.333a1.885,1.885,0,1,1-1.885-1.885,1.885,1.885,0,0,1,1.885,1.885" transform="translate(-54.954 -33.14)"/>
    <path id="Path_86" data-name="Path 86" d="M254.091,105.48a1.885,1.885,0,1,0-1.885-1.885,1.885,1.885,0,0,0,1.885,1.885" transform="translate(-78.517 -31.665)"/>
    <path id="Path_87" data-name="Path 87" d="M228.068,97.457h9.807v9.367h-49.7v12.453h43.155l-.148,10.044H188.177v22h-8.921V135.3l4.461-3.941V116.942" transform="translate(-55.806 -30.34)" fill="none" stroke="#000" stroke-width="2.08"/>
    <path id="Path_88" data-name="Path 88" d="M249.418,98.49A1.885,1.885,0,1,1,251.3,96.6a1.885,1.885,0,0,1-1.885,1.885" transform="translate(-77.062 -29.488)"/>
    <path id="Path_89" data-name="Path 89" d="M186.766,125.035a1.885,1.885,0,1,0-1.885,1.885,1.885,1.885,0,0,0,1.885-1.885" transform="translate(-56.971 -38.339)"/>
    <path id="Path_90" data-name="Path 90" d="M179.256,129.959V115.742l5.056-6.147v-5.149h31.7" transform="translate(-55.806 -32.516)" fill="none" stroke="#000" stroke-width="2.08"/>
    <path id="Path_91" data-name="Path 91" d="M180.289,140.5a1.885,1.885,0,1,1-1.885-1.885,1.885,1.885,0,0,1,1.885,1.885" transform="translate(-54.954 -43.155)"/>
    <path id="Path_92" data-name="Path 92" d="M231.637,105.48a1.885,1.885,0,1,0-1.885-1.885,1.885,1.885,0,0,0,1.885,1.885" transform="translate(-71.527 -31.665)"/>
    <line id="Line_7" data-name="Line 7" x1="34.667" transform="translate(134.31 94.228)" fill="none" stroke="#000" stroke-width="2.08"/>
    <path id="Path_93" data-name="Path 93" d="M244.375,134.087a1.885,1.885,0,1,1-1.885,1.885,1.885,1.885,0,0,1,1.885-1.885" transform="translate(-75.492 -41.744)"/>
    <path id="Path_94" data-name="Path 94" d="M194.311,134.087a1.885,1.885,0,1,0,1.885,1.885,1.885,1.885,0,0,0-1.885-1.885" transform="translate(-59.906 -41.744)"/>
    <line id="Line_8" data-name="Line 8" y2="6.908" transform="translate(127.762 108.971)" fill="none" stroke="#000" stroke-width="2.08"/>
    <path id="Path_95" data-name="Path 95" d="M182.78,157.518a1.885,1.885,0,1,1,1.885,1.885,1.885,1.885,0,0,1-1.885-1.885" transform="translate(-56.903 -48.452)"/>
    <path id="Path_96" data-name="Path 96" d="M182.78,167.275a1.885,1.885,0,1,0,1.885-1.885,1.885,1.885,0,0,0-1.885,1.885" transform="translate(-56.903 -51.49)"/>
    <path id="Path_97" data-name="Path 97" d="M299.227,97.659h-22.32v8.92H294.78V124.52" transform="translate(-86.207 -30.403)" fill="none" stroke="#000" stroke-width="2.08"/>
    <path id="Path_98" data-name="Path 98" d="M308.465,94.921a1.885,1.885,0,1,1-1.885,1.885,1.885,1.885,0,0,1,1.885-1.885" transform="translate(-95.445 -29.551)"/>
    <path id="Path_99" data-name="Path 99" d="M300.122,135.811a1.885,1.885,0,1,0,1.885-1.885,1.885,1.885,0,0,0-1.885,1.885" transform="translate(-93.435 -41.694)"/>
    <path id="Path_100" data-name="Path 100" d="M283.51,102.164l20.483-.09,5.235-4.416h15.178v8.92H306.1v44.709l-9.264.094V131.676l4.426-4.772.151-19.424" transform="translate(-88.263 -30.403)" fill="none" stroke="#000" stroke-width="2.08"/>
    <path id="Path_101" data-name="Path 101" d="M282.666,105.233a1.885,1.885,0,1,1,1.877-1.893,1.885,1.885,0,0,1-1.877,1.893" transform="translate(-87.411 -31.588)"/>
    <path id="Path_102" data-name="Path 102" d="M310.539,111.083a1.885,1.885,0,1,0-1.9,1.87,1.885,1.885,0,0,0,1.9-1.87" transform="translate(-95.504 -33.991)"/>
    <line id="Line_9" data-name="Line 9" x1="8.803" transform="translate(223.277 71.354)" fill="none" stroke="#000" stroke-width="2.08"/>
    <path id="Path_103" data-name="Path 103" d="M336.141,100.874a1.885,1.885,0,1,1-1.885,1.885,1.885,1.885,0,0,1,1.885-1.885" transform="translate(-104.061 -31.404)"/>
    <path id="Path_104" data-name="Path 104" d="M323.359,100.874a1.885,1.885,0,1,0,1.885,1.885,1.885,1.885,0,0,0-1.885-1.885" transform="translate(-100.082 -31.404)"/>
    <line id="Line_10" data-name="Line 10" y1="13.124" transform="translate(213.02 103.206)" fill="none" stroke="#000" stroke-width="2.08"/>
    <path id="Path_105" data-name="Path 105" d="M310.35,168.066a1.885,1.885,0,1,1-1.885-1.885,1.885,1.885,0,0,1,1.885,1.885" transform="translate(-95.445 -51.736)"/>
    <path id="Path_106" data-name="Path 106" d="M310.35,149.009a1.885,1.885,0,1,0-1.885,1.885,1.885,1.885,0,0,0,1.885-1.885" transform="translate(-95.445 -45.803)"/>
    <path id="Path_107" data-name="Path 107" d="M132.722,153.016h10.559l8.566-9.164V124.331l-4.183-5.186v-7.5l-6.275-6.565H130.7" transform="translate(-40.689 -32.712)" fill="none" stroke="#000" stroke-width="2.08"/>
    <path id="Path_108" data-name="Path 108" d="M132.922,175.721a1.885,1.885,0,1,1,1.885-1.885,1.885,1.885,0,0,1-1.885,1.885" transform="translate(-40.795 -53.532)"/>
    <path id="Path_109" data-name="Path 109" d="M129.982,102.338a1.885,1.885,0,1,0,1.885,1.885,1.885,1.885,0,0,0-1.885-1.885" transform="translate(-39.879 -31.86)"/>
    <path id="Path_110" data-name="Path 110" d="M137.683,124.5v14.935l-6.721,7.347H118.769l-4.064,4.534h-7.817l-8.754-9.067V106.52l8.726-9.064h25.487l9.363,9.363v6.974" transform="translate(-30.551 -30.34)" fill="none" stroke="#000" stroke-width="2.08"/>
    <path id="Path_111" data-name="Path 111" d="M152.824,136.014a1.885,1.885,0,1,1,1.885,1.885,1.885,1.885,0,0,1-1.885-1.885" transform="translate(-47.577 -41.757)"/>
    <path id="Path_112" data-name="Path 112" d="M158.671,120.19a1.885,1.885,0,1,0,1.885-1.885,1.885,1.885,0,0,0-1.885,1.885" transform="translate(-49.398 -36.831)"/>
    <path id="Path_113" data-name="Path 113" d="M104.036,129.08V111.332l6.721-6.748H115.6l4.22,4.56,10.63-.156,4.69,4.533v25.323l-4.377,5.472h-18.6l-3.133-3.245" transform="translate(-32.389 -32.559)" fill="none" stroke="#000" stroke-width="2.08"/>
    <path id="Path_114" data-name="Path 114" d="M105.069,139.165a1.885,1.885,0,1,1-1.885-1.885,1.885,1.885,0,0,1,1.885,1.885" transform="translate(-31.537 -42.738)"/>
    <path id="Path_115" data-name="Path 115" d="M111.889,155.5a1.885,1.885,0,1,0-.047,2.665,1.885,1.885,0,0,0,.047-2.665" transform="translate(-33.824 -48.232)"/>
    <path id="Path_116" data-name="Path 116" d="M111.587,112.215,108.57,114.8v20.634l-4.534,4.065v5.315l6.722,6.253h3.456" transform="translate(-32.389 -34.935)" fill="none" stroke="#000" stroke-width="2.08"/>
    <path id="Path_117" data-name="Path 117" d="M112.817,110.021a1.885,1.885,0,1,1-.2,2.658,1.885,1.885,0,0,1,.2-2.658" transform="translate(-34.918 -34.111)"/>
    <path id="Path_118" data-name="Path 118" d="M117.827,169.664a1.885,1.885,0,1,0-1.885-1.885,1.885,1.885,0,0,0,1.885,1.885" transform="translate(-36.095 -51.646)"/>
  </g>
</svg>
