<?xml version="1.0" encoding="UTF-8"?><svg id="Layer_2" xmlns="http://www.w3.org/2000/svg" viewBox="0 0 466.31 254.86"><defs><style>.cls-1{fill:#039;}.cls-2{fill:#fc0;}.cls-3{fill:#231f20;}</style></defs><g id="Layer_1-2"><g><path class="cls-1" d="M379.29,0c-47.99,0-87.03,39.59-87.03,88.24,0,14.22,3.33,27.66,9.25,39.55l-.48,.76c-2.22-.02-4.64-.04-4.68-.04h-9.87c-1.27,0-2.31-1.04-2.31-2.31,0-23.89-.18-119.46-.19-125.61,0-.18-.16-.33-.35-.33h-116.64s-.04,.01-.05,.02H1.43C.73,.28,.14,.82,.14,1.49l-.14,103.15c0,1.23,.89,2.23,2,2.23H7.77c.53,0,1.04-.23,1.41-.66,.38-.41,.59-.98,.59-1.57,0,0-.1-82.72-.11-94.08,0-.7,.57-1.27,1.27-1.27,13.04,.03,55.54,.26,99.83,.53h.06c4.83,.11,35.84,.78,38.64,.78,42.37,0,76.84,34.56,76.84,77.04s-34.47,78.05-76.84,78.05c-14.9,0-29.34-5.69-41.16-13.09-.23-.14-.28-.44-.13-.66,1.3-1.87,2.44-3.76,3.43-5.73,.12-.25,.43-.33,.66-.18,10.6,7.04,23.68,11.25,37.19,11.25,37.52,0,68.05-31.47,68.05-70.15S186.97,15.99,149.45,15.99H17.07c-.68,0-1.24,.56-1.24,1.25V104.62c0,.6,.21,1.16,.59,1.58,.37,.41,.88,.65,1.41,.65h5.77c1.11,0,2-1,2-2.22,0,0-.44-68.01-.5-78.32-.01-.73,.58-1.32,1.31-1.32,0,0,122.37,.31,123.04,.31,31.91,0,57.88,28.94,57.88,61.84s-25.97,59.66-57.88,59.66c-12.52,0-24.33-4.32-33.81-11.31-.15-.11-.21-.29-.18-.46,.21-1.05,.38-2.13,.53-3.25,.42-3.22,.6-5.43,.68-6.68,.03-.4,.5-.56,.78-.28,8.52,8.43,19.73,13.57,31.99,13.57,26.59,0,48.22-24.09,48.22-53.7s-21.63-53.7-48.22-53.7c-1.53,0-75.37,.25-75.37,.25l-40.82,.02c-.82,0-1.48,.66-1.48,1.48l-.09,71.15c0,1.1,.9,2,2,2,0,0,9.74-.35,11.4-.45,5.28-.32,10.71-.5,15.89,.77,5.99,1.47,11.24,4.89,13.28,10.89s-1.24,13.21-7.12,15.75c-4.7,2.04-10.21,2.33-15.14,1-6.18-1.66-10.07-7.7-10.81-13.88-.14-1.17-1.03-2.11-2.2-2.23l-4.76-.5c-.6-.07-1.2,.14-1.62,.57-.43,.42-.64,1.01-.58,1.61,.27,2.66,.76,5.32,1.62,7.86,1.21,3.56,3.26,6.8,5.98,9.4,7.91,7.54,20.9,9.3,30.79,4.97,6.31-2.77,11.27-8.36,12.7-15.13,1.33-6.24-.09-12.94-3.49-18.3-1.43-2.26-3.24-4.3-5.34-5.96-4.12-3.25-9.19-5-14.35-5.66-5.09-.65-10.26-.32-15.36-.04-1.71,.1-3.12-1.23-3.12-2.95v-.76c0-2.18,1.71-3.97,3.89-4.07,.43,0,.89-.03,1.38-.05,1.69-.07,3.59-.15,3.88-.15,5.9,.19,12.08,.44,18.33,2.59,2.57,.89,4.92,1.97,6.98,3.22,7.12,4.3,13.09,11.83,14.68,20.7,2.4,13.33-4.07,27.2-16.4,33.11-9.42,4.51-21.14,4.1-30.34-.56-2.44-1.23-4.72-2.77-6.78-4.57-3.25-2.83-6.03-6.13-8.02-9.96-2.22-4.28-2.96-8.81-3.94-13.38-.03-.14-.08-.27-.13-.4-.32-.7-1.01-1.16-1.78-1.18,0,0-5.44-.13-5.45-.13-1.28-.03-1.88,.85-1.93,2.04-.02,.49,.04,.99,.12,1.47,.4,2.28,.89,4.54,1.64,6.73,3.44,10.02,9.78,20.99,19.54,26.7,7.95,4.65,17.99,7,27.16,5.79,1.86-.25,3.68-.68,5.49-1.15,8.54-2.23,16.16-7.44,21.52-14.42,8.12-10.56,10.7-24.85,6.27-37.46-1.07-3.04-2.57-5.91-4.3-8.62-8.59-13.45-24.28-20.09-46.63-19.77l-2.21,.02c-1.42,0-2.42-.47-2.81-1.78-.11-.34-.22-1.61-.24-2.07-.05-1.01,.18-2.13,.98-2.56,.76-.39,1.72-.4,2.55-.44,2.65-.1,5.3-.14,7.96-.17h.84c17,0,33.15,7.26,42.13,17.49,4.65,5.29,8.92,14.93,10.42,22.25,1.98,9.67-.1,21.96-4.56,30.52-3.13,6.01-7.63,11.24-13.1,15.23-2.96,2.16-6.21,3.88-9.61,5.24-7.32,2.93-15.3,4.56-23.18,4.09-8.19-.49-15.83-2.86-22.81-7.36-3.87-2.49-7.37-5.52-10.42-8.97-7-7.93-11.67-18.04-12.29-28.74-.13-2.36-2.18-4.29-4.54-4.29H3.59c-2,0-3.63,1.64-3.57,3.63,.26,7.93,2.38,15.78,5.94,22.87,9.15,18.23,27.7,29.75,47.76,31.7,8.82,.86,17.1-.59,25.34-3.53,4.4-1.57,9-3.97,13.01-6.37,2.67-1.6,8.48-5.77,8.83-5.93,.09-.04,.2-.02,.29,.03,3.86,2.14,7.69,4.32,11.62,6.35,4.71,2.43,9.35,4.54,14.43,6.1s10.44,2.56,15.78,3.01c16.66,1.38,33.58-2.4,48.18-10.44,5.52-3.04,10.7-6.67,15.44-10.82,9.2-8.05,16.68-19.03,21.81-30.12,5.29-11.44,8.03-23.99,8.03-36.59,0-16.76-4.73-32.42-12.94-45.72-.19-.31,.02-.7,.38-.7,4.88-.02,11.99-.04,13.52-.05,.67,0,1.21,.53,1.23,1.2,.25,7.39,1.45,46,1.45,46l.51,83.84c.02,1.66,1.36,2.99,2.98,2.99l120.55-.05s.04,0,.06,0c6.9,.94,9.93,1.33,15.06,1.33,47.98,0,87.02-39.58,87.02-88.24S427.27,0,379.29,0ZM144.97,40.53c1.25-.17,2.51-.25,3.79-.25h.23c20.41,.16,38.64,21.65,38.64,44.39s-17.68,42.4-38.18,42.4-37.18-19.57-37.18-42.4c0-21.4,14.05-41.69,32.7-44.14Zm-70.02,2.1c-4.15,6.88-7.46,14.47-9.6,22.38-.18-.03-.35-.06-.53-.08-3.28-.45-6.71-.71-10.36-.81-5.03-.13-8.84-.16-11.72-.12-.72,0-1.3-.56-1.32-1.27-.08-4.13-.33-17.01-.41-21.21-.01-.73,.57-1.32,1.3-1.32l31.44,.31c1.09,.01,1.76,1.19,1.2,2.12Zm7.05,26.78c-.76-.28-1.52-.55-2.28-.82-.98-.35-1.95-.69-2.93-1-.74-.23-1.18-1.01-.95-1.75,2.69-8.91,6.99-17.53,12.46-24.75,.27-.36,.69-.56,1.14-.56h6.23c1.18,0,1.83,1.36,1.1,2.28-5.86,7.41-10.36,16.22-12.92,25.64-.22,.8-1.07,1.26-1.85,.96Zm19.07,10.21c-.11,1.2-1.56,1.72-2.41,.87-.94-.95-1.9-1.86-2.88-2.73-.76-.67-1.54-1.32-2.35-1.94-.42-.33-.64-.87-.52-1.39,2.77-13.12,9.72-24.91,19.34-33.54,.26-.23,.6-.36,.96-.36h5c1.29,0,1.9,1.59,.94,2.45-9.91,8.9-16.7,21.97-18.08,36.64ZM199.15,15.99c-2.89-2.1-4.78-3.14-7.84-4.81-.42-.23-.27-.87,.22-.87,22.89,.14,74.95-.24,81.3-.29,.36,0,.64,.28,.65,.64,.1,9.06,1.2,111.48,1.25,124.57,.01,1.75-.21,3.62,1.62,3.85l31.71,.14c.15,0,.29,.07,.38,.2,1.42,2.05,2.95,4.02,4.56,5.93,.26,.3,.05,.76-.35,.76l-41.64-.06c-3.33,.06-3.92-1.57-3.92-3.12-.01-2.91-.23-125.53-.23-125.53,0-.85-.9-1.35-1.75-1.35l-65.69,.03-.27-.09Zm135.93,148.11c.38,.26,.19,.85-.27,.85l-82.49-.45c-1.63,0-1.96-2.13-1.98-3.78l-.74-72.28-.6-54.49c-.01-1.16-.98-2.11-2.14-2.09l-30.05,.33c-.14,0-.27-.05-.36-.16-1.48-1.78-3.66-4.61-5.25-6.25-.22-.23-.07-.61,.26-.61h44.22c.51,0,.93,.41,.93,.92l1.25,126.98c0,.08,.18,3.32,4.71,3.2l61.13-.03c.1,0,.19,.03,.27,.09,1.02,.76,8.15,5.75,11.11,7.79Zm44.21,2.1c-42.38,0-76.85-34.88-76.85-77.75S336.91,10.69,379.29,10.69s76.84,34.88,76.84,77.75-34.47,77.75-76.84,77.75Z"/><g><path class="cls-3" d="M73.68,243.2h-2c-.12-.58-.32-1.08-.62-1.52-.29-.44-.65-.8-1.07-1.1s-.88-.52-1.38-.68c-.51-.15-1.03-.23-1.58-.23-1,0-1.91,.25-2.72,.76-.81,.51-1.45,1.25-1.93,2.24-.48,.98-.72,2.19-.72,3.63s.24,2.64,.72,3.63,1.12,1.73,1.93,2.24c.81,.51,1.72,.76,2.72,.76,.55,0,1.08-.08,1.58-.23s.97-.38,1.38-.67c.42-.3,.77-.67,1.07-1.11,.29-.44,.5-.94,.62-1.51h2c-.15,.84-.43,1.6-.82,2.27s-.89,1.23-1.49,1.7c-.59,.47-1.26,.82-1.99,1.06-.73,.24-1.52,.36-2.35,.36-1.41,0-2.67-.35-3.76-1.03s-1.96-1.67-2.59-2.94c-.63-1.27-.95-2.78-.95-4.52s.31-3.25,.95-4.52c.63-1.27,1.49-2.25,2.59-2.94s2.35-1.03,3.76-1.03c.83,0,1.62,.12,2.35,.36s1.4,.6,1.99,1.06c.59,.47,1.09,1.03,1.49,1.7s.67,1.42,.82,2.27Z"/><path class="cls-3" d="M94.1,246.3c0,1.74-.32,3.25-.95,4.52s-1.49,2.25-2.59,2.94c-1.1,.69-2.35,1.03-3.76,1.03s-2.67-.35-3.76-1.03-1.96-1.67-2.59-2.94c-.63-1.27-.95-2.78-.95-4.52s.31-3.25,.95-4.52c.63-1.27,1.49-2.25,2.59-2.94s2.35-1.03,3.76-1.03,2.67,.34,3.76,1.03c1.1,.69,1.96,1.67,2.59,2.94,.63,1.27,.95,2.78,.95,4.52Zm-1.94,0c0-1.43-.24-2.64-.71-3.63-.48-.99-1.12-1.73-1.93-2.24s-1.72-.76-2.72-.76-1.91,.25-2.72,.76c-.81,.51-1.45,1.25-1.93,2.24-.48,.98-.72,2.19-.72,3.63s.24,2.64,.72,3.63,1.12,1.73,1.93,2.24c.81,.51,1.72,.76,2.72,.76s1.91-.25,2.72-.76c.81-.51,1.45-1.25,1.93-2.24s.71-2.19,.71-3.63Z"/><path class="cls-3" d="M100.68,238.03h2.39l5.62,13.73h.19l5.62-13.73h2.39v16.54h-1.87v-12.57h-.16l-5.17,12.57h-1.81l-5.17-12.57h-.16v12.57h-1.87v-16.54Z"/><path class="cls-3" d="M124.14,238.03h2.39l5.62,13.73h.19l5.62-13.73h2.39v16.54h-1.87v-12.57h-.16l-5.17,12.57h-1.81l-5.17-12.57h-.16v12.57h-1.87v-16.54Z"/><path class="cls-3" d="M149.59,238.03v16.54h-2v-16.54h2Z"/><path class="cls-3" d="M155.92,239.81v-1.78h12.41v1.78h-5.2v14.76h-2v-14.76h-5.2Z"/><path class="cls-3" d="M183.38,239.81v-1.78h12.41v1.78h-5.2v14.76h-2v-14.76h-5.2Z"/><path class="cls-3" d="M215.4,246.3c0,1.74-.32,3.25-.95,4.52-.63,1.27-1.49,2.25-2.59,2.94-1.1,.69-2.35,1.03-3.76,1.03s-2.67-.35-3.76-1.03-1.96-1.67-2.59-2.94c-.63-1.27-.95-2.78-.95-4.52s.31-3.25,.95-4.52c.63-1.27,1.49-2.25,2.59-2.94s2.35-1.03,3.76-1.03,2.67,.34,3.76,1.03c1.1,.69,1.96,1.67,2.59,2.94,.63,1.27,.95,2.78,.95,4.52Zm-1.94,0c0-1.43-.24-2.64-.71-3.63-.48-.99-1.12-1.73-1.93-2.24-.81-.51-1.72-.76-2.72-.76s-1.91,.25-2.72,.76c-.81,.51-1.45,1.25-1.93,2.24-.48,.98-.72,2.19-.72,3.63s.24,2.64,.72,3.63c.48,.98,1.12,1.73,1.93,2.24,.81,.51,1.72,.76,2.72,.76s1.91-.25,2.72-.76c.81-.51,1.45-1.25,1.93-2.24s.71-2.19,.71-3.63Z"/><path class="cls-3" d="M231.61,238.03h2.39l5.62,13.73h.19l5.62-13.73h2.39v16.54h-1.87v-12.57h-.16l-5.17,12.57h-1.81l-5.17-12.57h-.16v12.57h-1.87v-16.54Z"/><path class="cls-3" d="M255.75,254.57h-2.1l6.07-16.54h2.07l6.07,16.54h-2.1l-4.94-13.92h-.13l-4.94,13.92Zm.78-6.46h8.46v1.78h-8.46v-1.78Z"/><path class="cls-3" d="M278.78,254.57h-5.1v-16.54h5.33c1.6,0,2.98,.33,4.12,.99,1.14,.66,2.02,1.6,2.62,2.83s.91,2.7,.91,4.41-.31,3.21-.92,4.45c-.61,1.24-1.51,2.19-2.68,2.86s-2.6,1-4.28,1Zm-3.1-1.78h2.97c1.37,0,2.5-.26,3.4-.79,.9-.53,1.57-1.28,2.01-2.25,.44-.97,.66-2.13,.66-3.48s-.22-2.49-.65-3.45c-.43-.97-1.09-1.71-1.95-2.23-.87-.52-1.95-.78-3.24-.78h-3.2v12.99Z"/><path class="cls-3" d="M293.25,254.57v-16.54h9.98v1.78h-7.98v5.59h7.46v1.78h-7.46v5.62h8.11v1.78h-10.11Z"/><path class="cls-3" d="M321.71,238.03v16.54h-2v-16.54h2Z"/><path class="cls-3" d="M342.06,238.03v16.54h-1.94l-9.01-12.99h-.16v12.99h-2v-16.54h1.94l9.05,13.02h.16v-13.02h1.97Z"/><path class="cls-3" d="M358.92,254.57v-16.54h9.98v1.78h-7.98v5.59h7.46v1.78h-7.46v5.62h8.11v1.78h-10.11Z"/><path class="cls-3" d="M386.61,238.03h2v10.95c0,1.13-.27,2.14-.8,3.02-.53,.89-1.28,1.58-2.24,2.09-.96,.51-2.1,.76-3.39,.76s-2.43-.25-3.39-.76c-.96-.51-1.71-1.21-2.24-2.09-.53-.89-.8-1.89-.8-3.02v-10.95h2v10.79c0,.81,.18,1.52,.53,2.15,.36,.63,.86,1.12,1.52,1.48s1.45,.54,2.37,.54,1.71-.18,2.37-.54,1.17-.85,1.52-1.48,.53-1.34,.53-2.15v-10.79Z"/></g><g><path class="cls-1" d="M72.54,225.14c-2.45,0-4.63-.45-6.54-1.35-1.91-.9-3.43-2.14-4.55-3.73-1.12-1.58-1.7-3.4-1.75-5.44h7.28c.08,1.38,.66,2.49,1.73,3.34,1.07,.86,2.35,1.28,3.83,1.28,1.18,0,2.22-.26,3.13-.79,.91-.53,1.62-1.26,2.13-2.2,.51-.94,.77-2.02,.77-3.25s-.26-2.34-.79-3.29c-.53-.95-1.25-1.69-2.17-2.22-.92-.53-1.98-.8-3.17-.81-1.04,0-2.05,.21-3.02,.64-.98,.43-1.74,1.01-2.28,1.75l-6.67-1.2,1.68-18.71h21.7v6.13h-15.51l-.92,8.89h.21c.62-.88,1.56-1.61,2.82-2.18,1.26-.58,2.67-.87,4.23-.87,2.14,0,4.04,.5,5.72,1.51,1.67,1.01,3,2.38,3.97,4.13s1.45,3.76,1.44,6.04c.01,2.39-.54,4.51-1.65,6.37-1.12,1.85-2.67,3.31-4.66,4.37s-4.31,1.59-6.94,1.59Z"/><path class="cls-1" d="M107.87,225.43c-2.98-.01-5.54-.75-7.69-2.2-2.14-1.46-3.79-3.56-4.94-6.32-1.15-2.76-1.72-6.08-1.71-9.96,0-3.87,.57-7.17,1.72-9.89,1.15-2.73,2.8-4.8,4.94-6.23,2.14-1.43,4.7-2.14,7.67-2.14s5.52,.72,7.67,2.15c2.14,1.43,3.79,3.51,4.95,6.23,1.15,2.72,1.73,6.02,1.72,9.89,0,3.89-.58,7.22-1.72,9.98-1.15,2.76-2.79,4.87-4.93,6.32-2.14,1.46-4.7,2.18-7.68,2.18Zm0-6.22c2.03,0,3.66-1.02,4.87-3.07s1.81-5.11,1.8-9.2c0-2.69-.28-4.93-.82-6.72-.55-1.79-1.32-3.14-2.32-4.04-1-.9-2.17-1.35-3.53-1.35-2.02,0-3.64,1.01-4.85,3.03-1.21,2.02-1.83,5.05-1.84,9.08,0,2.73,.27,5,.82,6.82,.55,1.82,1.33,3.18,2.33,4.09,1.01,.91,2.18,1.36,3.54,1.36Z"/><path class="cls-1" d="M145.9,189.16v35.49h-7.5v-28.37h-.21l-8.13,5.09v-6.65l8.79-5.56h7.05Z"/><path class="cls-1" d="M171.19,225.43c-2.98-.01-5.54-.75-7.69-2.2-2.14-1.46-3.79-3.56-4.94-6.32-1.15-2.76-1.72-6.08-1.71-9.96,0-3.87,.57-7.17,1.72-9.89,1.15-2.73,2.8-4.8,4.94-6.23,2.14-1.43,4.7-2.14,7.67-2.14s5.52,.72,7.67,2.15c2.14,1.43,3.79,3.51,4.95,6.23,1.15,2.72,1.73,6.02,1.72,9.89,0,3.89-.58,7.22-1.72,9.98-1.15,2.76-2.79,4.87-4.93,6.32-2.14,1.46-4.7,2.18-7.68,2.18Zm0-6.22c2.03,0,3.66-1.02,4.87-3.07s1.81-5.11,1.8-9.2c0-2.69-.28-4.93-.82-6.72-.55-1.79-1.32-3.14-2.32-4.04-1-.9-2.17-1.35-3.53-1.35-2.02,0-3.64,1.01-4.85,3.03-1.21,2.02-1.83,5.05-1.84,9.08,0,2.73,.27,5,.82,6.82,.55,1.82,1.33,3.18,2.33,4.09,1.01,.91,2.18,1.36,3.54,1.36Z"/><path class="cls-1" d="M193.99,224.65v-35.49h23.91v6.19h-16.41v8.46h15.18v6.19h-15.18v8.47h16.48v6.19h-23.98Z"/><path class="cls-1" d="M248.73,189.16h7.5v23.05c0,2.59-.62,4.85-1.85,6.79s-2.95,3.45-5.16,4.53c-2.21,1.08-4.78,1.62-7.71,1.62s-5.52-.54-7.73-1.62c-2.21-1.08-3.92-2.59-5.15-4.53-1.22-1.94-1.84-4.2-1.84-6.79v-23.05h7.5v22.41c0,1.35,.3,2.55,.89,3.6,.59,1.05,1.44,1.88,2.52,2.48,1.09,.6,2.35,.9,3.79,.9s2.72-.3,3.8-.9c1.08-.6,1.92-1.43,2.51-2.48,.59-1.05,.89-2.25,.89-3.6v-22.41Z"/><path class="cls-1" d="M267.84,225.1c-1.14,0-2.12-.41-2.94-1.22-.81-.81-1.22-1.79-1.22-2.94s.41-2.1,1.22-2.91c.81-.81,1.79-1.21,2.94-1.21s2.08,.41,2.91,1.21c.83,.81,1.25,1.78,1.25,2.91,0,.76-.19,1.46-.58,2.09-.39,.63-.89,1.13-1.52,1.51s-1.31,.56-2.06,.56Z"/><path class="cls-1" d="M313.73,206.91c0,3.87-.73,7.16-2.19,9.88-1.46,2.72-3.45,4.79-5.96,6.21-2.51,1.43-5.34,2.14-8.47,2.14s-5.98-.72-8.49-2.15c-2.51-1.43-4.49-3.51-5.94-6.22-1.46-2.71-2.18-6-2.18-9.86s.73-7.16,2.18-9.88c1.46-2.71,3.44-4.78,5.94-6.21,2.51-1.43,5.34-2.14,8.49-2.14s5.95,.71,8.47,2.14c2.51,1.43,4.5,3.5,5.96,6.21,1.46,2.72,2.19,6.01,2.19,9.88Zm-7.61,0c0-2.51-.37-4.62-1.12-6.34-.75-1.72-1.79-3.03-3.15-3.92-1.35-.89-2.94-1.33-4.75-1.33s-3.4,.45-4.75,1.33c-1.35,.89-2.4,2.2-3.15,3.92-.75,1.72-1.12,3.84-1.12,6.34s.37,4.62,1.12,6.34c.75,1.72,1.79,3.03,3.15,3.92,1.35,.89,2.93,1.33,4.75,1.33s3.4-.44,4.75-1.33c1.35-.89,2.4-2.19,3.15-3.92,.75-1.72,1.12-3.84,1.12-6.34Z"/><path class="cls-1" d="M342.66,210.86c.11-.04,.22-.09,.33-.14,1.92-.9,3.39-2.2,4.41-3.89,1.01-1.69,1.52-3.72,1.52-6.07s-.5-4.39-1.5-6.13c-1-1.74-2.45-3.08-4.35-4.04-1.9-.95-4.19-1.43-6.87-1.43h-14v35.49h7.5v-12.58h5.48l6.72,12.58h8.29l-7.53-13.79Zm-12.96-15.56h5.06c1.45,0,2.65,.21,3.6,.63,.95,.42,1.66,1.04,2.13,1.85,.47,.81,.7,1.8,.7,2.98s-.23,2.14-.7,2.93c-.47,.78-1.17,1.37-2.12,1.76-.95,.4-2.14,.59-3.57,.59h-5.1v-10.74Z"/><path class="cls-1" d="M380.68,200.64c-.24-.84-.58-1.59-1.02-2.24-.44-.65-.97-1.21-1.6-1.66-.63-.46-1.35-.81-2.15-1.05-.8-.24-1.69-.36-2.66-.36-1.81,0-3.41,.45-4.77,1.35s-2.43,2.21-3.2,3.92c-.76,1.72-1.14,3.81-1.14,6.28s.37,4.57,1.13,6.31c.75,1.73,1.81,3.05,3.19,3.96,1.37,.91,3,1.36,4.87,1.36,1.7,0,3.15-.3,4.36-.91,1.21-.61,2.13-1.46,2.77-2.57s.96-2.42,.96-3.93l1.52,.23h-9.15v-5.65h14.85v4.47c0,3.12-.66,5.8-1.98,8.03s-3.13,3.96-5.44,5.16c-2.31,1.21-4.96,1.81-7.94,1.81-3.33,0-6.25-.74-8.77-2.21-2.52-1.47-4.48-3.57-5.88-6.29-1.4-2.72-2.11-5.95-2.11-9.7,0-2.88,.42-5.44,1.26-7.7,.84-2.26,2.01-4.17,3.53-5.74,1.51-1.57,3.28-2.77,5.29-3.59,2.01-.82,4.19-1.23,6.53-1.23,2.01,0,3.88,.29,5.61,.88,1.73,.58,3.27,1.41,4.62,2.47,1.35,1.06,2.45,2.33,3.3,3.79,.85,1.46,1.4,3.07,1.65,4.83h-7.62Z"/></g><path class="cls-1" d="M379.29,157.29c-37.52,0-68.05-31.46-68.05-70.12s30.46-71.12,67.98-71.12,68.11,32.46,68.11,71.12-30.53,70.12-68.05,70.12Zm0-132.14c-31.91,0-57.88,29.13-57.88,62.01s25.96,59.64,57.88,59.64,57.88-26.75,57.88-59.64-25.96-62.01-57.88-62.01Z"/><path class="cls-1" d="M379.29,138.23c-26.59,0-48.22-24.83-48.22-54.13s21.63-53.13,48.22-53.13,48.22,23.83,48.22,53.13-21.63,54.13-48.22,54.13Zm.04-97.63c-20.5,0-38.21,20.92-38.21,43.51s17.68,42.96,38.18,42.96,38.18-20.37,38.18-42.96-17.64-43.51-38.14-43.51Z"/><polygon class="cls-2" points="379.29 2.08 380.12 4.63 382.8 4.63 380.63 6.21 381.46 8.77 379.29 7.19 377.11 8.77 377.94 6.21 375.77 4.63 378.46 4.63 379.29 2.08"/><polygon class="cls-2" points="279.21 1.75 280.04 4.31 282.73 4.31 280.56 5.89 281.39 8.44 279.21 6.86 277.04 8.44 277.87 5.89 275.7 4.31 278.38 4.31 279.21 1.75"/><polygon class="cls-2" points="245.43 1.75 246.26 4.31 248.95 4.31 246.77 5.89 247.6 8.44 245.43 6.86 243.26 8.44 244.09 5.89 241.91 4.31 244.6 4.31 245.43 1.75"/><polygon class="cls-2" points="211.65 1.75 212.48 4.31 215.16 4.31 212.99 5.89 213.82 8.44 211.65 6.86 209.47 8.44 210.3 5.89 208.13 4.31 210.82 4.31 211.65 1.75"/><polygon class="cls-2" points="177.86 1.75 178.69 4.31 181.38 4.31 179.21 5.89 180.04 8.44 177.86 6.86 175.69 8.44 176.52 5.89 174.35 4.31 177.03 4.31 177.86 1.75"/><polygon class="cls-2" points="144.08 1.31 144.91 3.87 147.6 3.87 145.42 5.45 146.25 8 144.08 6.42 141.91 8 142.74 5.45 140.56 3.87 143.25 3.87 144.08 1.31"/><polygon class="cls-2" points="110.3 1.75 111.13 4.31 113.81 4.31 111.64 5.89 112.47 8.44 110.3 6.86 108.12 8.44 108.95 5.89 106.78 4.31 109.47 4.31 110.3 1.75"/><polygon class="cls-2" points="76.51 1.75 77.34 4.31 80.03 4.31 77.86 5.89 78.69 8.44 76.51 6.86 74.34 8.44 75.17 5.89 73 4.31 75.68 4.31 76.51 1.75"/><polygon class="cls-2" points="64.18 17.33 65.01 19.89 67.69 19.89 65.52 21.47 66.35 24.02 64.18 22.44 62 24.02 62.83 21.47 60.66 19.89 63.35 19.89 64.18 17.33"/><polygon class="cls-2" points="109.35 17.33 110.18 19.89 112.86 19.89 110.69 21.47 111.52 24.02 109.35 22.44 107.17 24.02 108 21.47 105.83 19.89 108.52 19.89 109.35 17.33"/><polygon class="cls-2" points="42.73 1.75 43.56 4.31 46.25 4.31 44.07 5.89 44.9 8.44 42.73 6.86 40.56 8.44 41.39 5.89 39.21 4.31 41.9 4.31 42.73 1.75"/><polygon class="cls-2" points="5.86 1.75 6.69 4.31 9.38 4.31 7.21 5.89 8.04 8.44 5.86 6.86 3.69 8.44 4.52 5.89 2.35 4.31 5.03 4.31 5.86 1.75"/><polygon class="cls-2" points="4.62 41.79 5.45 44.35 8.14 44.35 5.97 45.93 6.8 48.48 4.62 46.9 2.45 48.48 3.28 45.93 1.11 44.35 3.79 44.35 4.62 41.79"/><polygon class="cls-2" points="4.62 81.82 5.45 84.37 8.14 84.37 5.97 85.95 6.8 88.51 4.62 86.93 2.45 88.51 3.28 85.95 1.11 84.37 3.79 84.37 4.62 81.82"/><polygon class="cls-2" points="21.65 17.33 22.48 19.89 25.16 19.89 22.99 21.47 23.82 24.02 21.65 22.44 19.47 24.02 20.3 21.47 18.13 19.89 20.82 19.89 21.65 17.33"/><polygon class="cls-2" points="20.41 58.36 21.24 60.91 23.92 60.91 21.75 62.49 22.58 65.05 20.41 63.47 18.23 65.05 19.06 62.49 16.89 60.91 19.58 60.91 20.41 58.36"/><polygon class="cls-2" points="20.41 98.38 21.24 100.94 23.92 100.94 21.75 102.52 22.58 105.07 20.41 103.49 18.23 105.07 19.06 102.52 16.89 100.94 19.58 100.94 20.41 98.38"/><polygon class="cls-2" points="279.21 45.51 280.04 48.07 282.73 48.07 280.56 49.64 281.39 52.2 279.21 50.62 277.04 52.2 277.87 49.64 275.7 48.07 278.38 48.07 279.21 45.51"/><polygon class="cls-2" points="279.21 88.94 280.04 91.5 282.73 91.5 280.56 93.08 281.39 95.63 279.21 94.05 277.04 95.63 277.87 93.08 275.7 91.5 278.38 91.5 279.21 88.94"/><polygon class="cls-2" points="280.71 130.17 281.54 132.73 284.22 132.73 282.05 134.31 282.88 136.86 280.71 135.28 278.53 136.86 279.36 134.31 277.19 132.73 279.88 132.73 280.71 130.17"/><polygon class="cls-2" points="261.76 19.01 262.59 21.56 265.27 21.56 263.1 23.14 263.93 25.7 261.76 24.12 259.58 25.7 260.41 23.14 258.24 21.56 260.93 21.56 261.76 19.01"/><polygon class="cls-2" points="261.76 63.45 262.59 66.01 265.27 66.01 263.1 67.58 263.93 70.14 261.76 68.56 259.58 70.14 260.41 67.58 258.24 66.01 260.93 66.01 261.76 63.45"/><polygon class="cls-2" points="262.09 106.88 262.92 109.44 265.61 109.44 263.43 111.02 264.26 113.57 262.09 111.99 259.91 113.57 260.75 111.02 258.57 109.44 261.26 109.44 262.09 106.88"/><polygon class="cls-2" points="264.05 145.7 264.88 148.25 267.57 148.25 265.4 149.83 266.23 152.39 264.05 150.81 261.88 152.39 262.71 149.83 260.53 148.25 263.22 148.25 264.05 145.7"/><polygon class="cls-2" points="312.22 147.46 313.05 150.01 315.73 150.01 313.56 151.59 314.39 154.15 312.22 152.57 310.04 154.15 310.87 151.59 308.7 150.01 311.39 150.01 312.22 147.46"/><polygon class="cls-2" points="243.81 38.08 244.64 40.63 247.33 40.63 245.16 42.21 245.99 44.77 243.81 43.19 241.64 44.77 242.47 42.21 240.3 40.63 242.98 40.63 243.81 38.08"/><polygon class="cls-2" points="245 83.92 245.83 86.48 248.52 86.48 246.35 88.06 247.18 90.61 245 89.03 242.83 90.61 243.66 88.06 241.49 86.48 244.17 86.48 245 83.92"/><polygon class="cls-2" points="245.01 130.17 245.85 132.73 248.53 132.73 246.36 134.31 247.19 136.86 245.01 135.28 242.84 136.86 243.67 134.31 241.5 132.73 244.18 132.73 245.01 130.17"/><polygon class="cls-2" points="297.53 165.88 298.36 168.43 301.05 168.43 298.88 170.01 299.71 172.57 297.53 170.99 295.36 172.57 296.19 170.01 294.02 168.43 296.7 168.43 297.53 165.88"/><polygon class="cls-2" points="248.56 164.85 249.39 167.4 252.08 167.4 249.9 168.98 250.73 171.54 248.56 169.96 246.39 171.54 247.22 168.98 245.04 167.4 247.73 167.4 248.56 164.85"/><polygon class="cls-2" points="379.22 17.25 380.05 19.81 382.74 19.81 380.56 21.39 381.39 23.94 379.22 22.36 377.05 23.94 377.88 21.39 375.7 19.81 378.39 19.81 379.22 17.25"/><polygon class="cls-2" points="379.29 32.61 380.12 35.17 382.8 35.17 380.63 36.75 381.46 39.3 379.29 37.72 377.11 39.3 377.94 36.75 375.77 35.17 378.46 35.17 379.29 32.61"/><polygon class="cls-2" points="148.76 32.71 149.59 35.27 152.28 35.27 150.11 36.85 150.94 39.4 148.76 37.83 146.59 39.4 147.42 36.85 145.25 35.27 147.93 35.27 148.76 32.71"/><polygon class="cls-2" points="149.59 17.33 150.42 19.89 153.11 19.89 150.94 21.47 151.77 24.02 149.59 22.44 147.42 24.02 148.25 21.47 146.08 19.89 148.76 19.89 149.59 17.33"/><polygon class="cls-2" points="93.18 50.79 95.81 51.35 97.15 49.02 97.43 51.69 100.06 52.25 97.6 53.34 97.88 56.02 96.09 54.02 93.63 55.11 94.97 52.78 93.18 50.79"/><polygon class="cls-2" points="106.3 34.44 108.93 34.99 110.28 32.67 110.56 35.34 113.18 35.9 110.73 36.99 111.01 39.66 109.21 37.67 106.76 38.76 108.1 36.43 106.3 34.44"/><polygon class="cls-2" points="80.6 74.78 83.16 73.95 83.16 71.26 84.74 73.43 87.29 72.6 85.71 74.78 87.29 76.95 84.74 76.12 83.16 78.29 83.16 75.61 80.6 74.78"/><polygon class="cls-2" points="73.17 90.09 75.72 89.25 75.72 86.57 77.3 88.74 79.86 87.91 78.28 90.09 79.86 92.26 77.3 91.43 75.72 93.6 75.72 90.92 73.17 90.09"/><polygon class="cls-2" points="153.56 155.28 154.12 152.65 151.79 151.31 154.47 151.03 155.02 148.4 156.12 150.86 158.79 150.58 156.79 152.37 157.89 154.83 155.56 153.48 153.56 155.28"/><polygon class="cls-2" points="186.01 142.58 186.57 139.95 184.25 138.61 186.92 138.33 187.48 135.7 188.57 138.15 191.24 137.87 189.25 139.67 190.34 142.12 188.01 140.78 186.01 142.58"/><polygon class="cls-2" points="123.34 40.05 125.34 41.85 127.66 40.51 126.57 42.96 128.57 44.76 125.89 44.48 124.8 46.93 124.24 44.31 121.57 44.02 123.9 42.68 123.34 40.05"/><polygon class="cls-2" points="35.4 32.62 37.39 34.42 39.72 33.07 38.63 35.53 40.62 37.33 37.95 37.05 36.86 39.5 36.3 36.87 33.63 36.59 35.95 35.25 35.4 32.62"/><polygon class="cls-2" points="81.21 32.73 83.2 34.52 85.53 33.18 84.44 35.63 86.44 37.43 83.76 37.15 82.67 39.61 82.11 36.98 79.44 36.7 81.77 35.35 81.21 32.73"/><polygon class="cls-2" points="107.68 60.05 110.31 60.61 111.65 58.28 111.93 60.96 114.56 61.52 112.11 62.61 112.39 65.28 110.59 63.28 108.13 64.38 109.48 62.05 107.68 60.05"/><polygon class="cls-2" points="72.38 49.69 75.01 50.25 76.35 47.93 76.63 50.6 79.26 51.16 76.81 52.25 77.09 54.92 75.29 52.93 72.84 54.02 74.18 51.69 72.38 49.69"/><polygon class="cls-2" points="100.19 89.75 102.74 88.92 102.74 86.23 104.32 88.41 106.88 87.58 105.3 89.75 106.88 91.92 104.32 91.09 102.74 93.27 102.74 90.58 100.19 89.75"/><polygon class="cls-2" points="33.78 69.48 36.34 68.65 36.34 65.96 37.91 68.13 40.47 67.3 38.89 69.48 40.47 71.65 37.91 70.82 36.34 72.99 36.34 70.31 33.78 69.48"/><polygon class="cls-2" points="55.11 68.67 57.66 67.84 57.66 65.15 59.24 67.32 61.8 66.49 60.22 68.67 61.8 70.84 59.24 70.01 57.66 72.18 57.66 69.5 55.11 68.67"/><polygon class="cls-2" points="109.74 110.46 111.54 108.47 110.2 106.14 112.65 107.23 114.45 105.24 114.17 107.91 116.63 109 114 109.56 113.72 112.23 112.37 109.9 109.74 110.46"/><polygon class="cls-2" points="126.75 131.18 127.31 128.56 124.98 127.21 127.66 126.93 128.21 124.3 129.31 126.76 131.98 126.48 129.98 128.28 131.08 130.73 128.75 129.39 126.75 131.18"/><polygon class="cls-2" points="115.67 166.06 116.23 163.43 113.9 162.09 116.58 161.81 117.14 159.18 118.23 161.64 120.9 161.35 118.9 163.15 120 165.61 117.67 164.26 115.67 166.06"/><polygon class="cls-2" points="152.97 137.05 152.14 134.5 149.45 134.5 151.62 132.92 150.79 130.36 152.97 131.94 155.14 130.36 154.31 132.92 156.49 134.5 153.8 134.5 152.97 137.05"/><polygon class="cls-2" points="178.18 125.7 176.18 123.9 173.85 125.25 174.95 122.79 172.95 120.99 175.62 121.28 176.71 118.82 177.27 121.45 179.95 121.73 177.62 123.07 178.18 125.7"/><polygon class="cls-2" points="192.64 104.38 190.01 103.82 188.67 106.15 188.39 103.47 185.76 102.92 188.21 101.82 187.93 99.15 189.73 101.15 192.19 100.05 190.84 102.38 192.64 104.38"/><polygon class="cls-2" points="210.59 114.94 207.96 114.38 206.62 116.71 206.34 114.04 203.71 113.48 206.16 112.38 205.88 109.71 207.68 111.71 210.14 110.61 208.79 112.94 210.59 114.94"/><polygon class="cls-2" points="196.13 81.26 193.57 82.09 193.57 84.78 191.99 82.61 189.44 83.44 191.02 81.26 189.44 79.09 191.99 79.92 193.57 77.75 193.57 80.43 196.13 81.26"/><polygon class="cls-2" points="215.15 80.59 212.59 81.42 212.59 84.1 211.01 81.93 208.46 82.76 210.04 80.59 208.46 78.41 211.01 79.24 212.59 77.07 212.59 79.76 215.15 80.59"/><polygon class="cls-2" points="189.92 58.16 188.13 60.15 189.47 62.48 187.02 61.39 185.22 63.38 185.5 60.71 183.04 59.62 185.67 59.06 185.95 56.39 187.3 58.71 189.92 58.16"/><polygon class="cls-2" points="204.53 48.26 202.73 50.26 204.08 52.58 201.62 51.49 199.82 53.49 200.11 50.82 197.65 49.72 200.28 49.16 200.56 46.49 201.9 48.82 204.53 48.26"/><polygon class="cls-2" points="174.43 40.05 173.87 42.68 176.19 44.02 173.52 44.31 172.96 46.93 171.87 44.48 169.2 44.76 171.19 42.96 170.1 40.51 172.43 41.85 174.43 40.05"/><polygon class="cls-2" points="179.98 25.08 179.42 27.71 181.75 29.05 179.08 29.33 178.52 31.96 177.43 29.51 174.75 29.79 176.75 27.99 175.66 25.53 177.98 26.88 179.98 25.08"/><polygon class="cls-2" points="352.73 41.97 354.73 43.77 357.05 42.43 355.96 44.88 357.96 46.68 355.29 46.4 354.19 48.85 353.63 46.22 350.96 45.94 353.29 44.6 352.73 41.97"/><polygon class="cls-2" points="336.87 63.43 339.5 63.99 340.85 61.66 341.13 64.33 343.76 64.89 341.3 65.99 341.58 68.66 339.78 66.66 337.33 67.75 338.67 65.43 336.87 63.43"/><polygon class="cls-2" points="332.54 86.88 335.1 86.05 335.1 83.36 336.68 85.54 339.23 84.71 337.65 86.88 339.23 89.05 336.68 88.22 335.1 90.4 335.1 87.71 332.54 86.88"/><polygon class="cls-2" points="339.54 108.9 341.34 106.9 339.99 104.58 342.45 105.67 344.24 103.67 343.96 106.34 346.42 107.44 343.79 108 343.51 110.67 342.17 108.34 339.54 108.9"/><polygon class="cls-2" points="356.49 129.24 357.05 126.61 354.72 125.27 357.39 124.99 357.95 122.36 359.04 124.82 361.72 124.54 359.72 126.33 360.81 128.79 358.49 127.44 356.49 129.24"/><polygon class="cls-2" points="379.29 135.73 378.46 133.18 375.77 133.18 377.94 131.6 377.11 129.04 379.29 130.62 381.46 129.04 380.63 131.6 382.8 133.18 380.12 133.18 379.29 135.73"/><polygon class="cls-2" points="402.39 129.24 400.39 127.45 398.07 128.79 399.16 126.33 397.16 124.54 399.84 124.82 400.93 122.36 401.49 124.99 404.16 125.27 401.83 126.61 402.39 129.24"/><polygon class="cls-2" points="419.44 111.09 416.81 110.53 415.47 112.85 415.19 110.18 412.56 109.62 415.02 108.53 414.74 105.86 416.53 107.85 418.99 106.76 417.64 109.09 419.44 111.09"/><polygon class="cls-2" points="426.23 85.79 423.67 86.62 423.67 89.31 422.09 87.14 419.54 87.97 421.12 85.79 419.54 83.62 422.09 84.45 423.67 82.28 423.67 84.96 426.23 85.79"/><polygon class="cls-2" points="421.11 61.71 419.31 63.71 420.65 66.03 418.2 64.94 416.4 66.94 416.68 64.27 414.23 63.17 416.86 62.61 417.14 59.94 418.48 62.27 421.11 61.71"/><polygon class="cls-2" points="406.36 41.97 405.8 44.6 408.13 45.94 405.46 46.22 404.9 48.85 403.8 46.4 401.13 46.68 403.13 44.88 402.04 42.43 404.36 43.77 406.36 41.97"/><polygon class="cls-2" points="344.89 27.53 346.89 29.33 349.22 27.99 348.13 30.44 350.12 32.24 347.45 31.96 346.36 34.41 345.8 31.78 343.13 31.5 345.45 30.16 344.89 27.53"/><polygon class="cls-2" points="321.79 55.03 324.42 55.59 325.76 53.26 326.04 55.94 328.67 56.49 326.22 57.59 326.5 60.26 324.7 58.26 322.25 59.36 323.59 57.03 321.79 55.03"/><polygon class="cls-2" points="312.22 87.88 314.77 87.05 314.77 84.36 316.35 86.54 318.91 85.71 317.33 87.88 318.91 90.05 316.35 89.22 314.77 91.4 314.77 88.71 312.22 87.88"/><polygon class="cls-2" points="321.32 120.59 323.11 118.6 321.77 116.27 324.22 117.36 326.02 115.37 325.74 118.04 328.2 119.13 325.57 119.69 325.29 122.36 323.94 120.04 321.32 120.59"/><polygon class="cls-2" points="346.6 146.36 347.16 143.73 344.83 142.39 347.5 142.1 348.06 139.48 349.16 141.93 351.83 141.65 349.83 143.45 350.93 145.9 348.6 144.56 346.6 146.36"/><polygon class="cls-2" points="380.3 155.51 379.47 152.95 376.78 152.95 378.96 151.37 378.13 148.82 380.3 150.4 382.47 148.82 381.64 151.37 383.82 152.95 381.13 152.95 380.3 155.51"/><polygon class="cls-2" points="413.01 145.85 411.02 144.05 408.69 145.4 409.78 142.94 407.78 141.14 410.46 141.42 411.55 138.97 412.11 141.6 414.78 141.88 412.45 143.22 413.01 145.85"/><polygon class="cls-2" points="437.78 119.72 435.15 119.16 433.8 121.49 433.52 118.81 430.89 118.25 433.35 117.16 433.07 114.49 434.87 116.49 437.32 115.39 435.98 117.72 437.78 119.72"/><polygon class="cls-2" points="445.37 86.87 442.81 87.7 442.81 90.38 441.23 88.21 438.68 89.04 440.26 86.87 438.68 84.69 441.23 85.52 442.81 83.35 442.81 86.04 445.37 86.87"/><polygon class="cls-2" points="437.16 53.2 435.36 55.19 436.71 57.52 434.25 56.43 432.45 58.42 432.74 55.75 430.28 54.66 432.91 54.1 433.19 51.43 434.53 53.76 437.16 53.2"/><polygon class="cls-2" points="413.63 27.51 413.07 30.13 415.39 31.48 412.72 31.76 412.16 34.39 411.07 31.93 408.4 32.21 410.4 30.41 409.3 27.96 411.63 29.3 413.63 27.51"/><polygon class="cls-2" points="337.03 13.4 339.04 15.18 341.36 13.82 340.28 16.28 342.29 18.07 339.62 17.81 338.54 20.27 337.96 17.64 335.29 17.38 337.61 16.02 337.03 13.4"/><polygon class="cls-2" points="305.87 44.47 308.51 44.99 309.82 42.65 310.14 45.31 312.78 45.83 310.34 46.96 310.66 49.63 308.83 47.66 306.39 48.79 307.7 46.44 305.87 44.47"/><polygon class="cls-2" points="293.8 87.56 296.34 86.67 296.28 83.98 297.9 86.12 300.44 85.24 298.91 87.44 300.54 89.58 297.96 88.81 296.43 91.02 296.37 88.33 293.8 87.56"/><polygon class="cls-2" points="304.85 130.39 306.59 128.34 305.17 126.06 307.66 127.08 309.4 125.03 309.2 127.71 311.68 128.73 309.07 129.37 308.87 132.04 307.46 129.76 304.85 130.39"/><polygon class="cls-2" points="337.81 163.56 338.27 160.92 335.9 159.66 338.56 159.28 339.02 156.64 340.2 159.05 342.86 158.67 340.93 160.54 342.11 162.95 339.74 161.7 337.81 163.56"/><polygon class="cls-2" points="382.17 174.63 381.22 172.12 378.54 172.23 380.64 170.56 379.7 168.04 381.94 169.53 384.05 167.85 383.33 170.44 385.57 171.93 382.88 172.04 382.17 174.63"/><polygon class="cls-2" points="427.91 159.45 425.82 157.75 423.56 159.21 424.53 156.71 422.45 155.01 425.13 155.16 426.09 152.65 426.79 155.25 429.47 155.39 427.21 156.85 427.91 159.45"/><polygon class="cls-2" points="457.18 124.29 454.53 123.89 453.32 126.29 452.89 123.64 450.23 123.23 452.62 122 452.18 119.35 454.09 121.24 456.48 120 455.27 122.4 457.18 124.29"/><polygon class="cls-2" points="35.38 102.15 37.18 100.15 35.84 97.83 38.29 98.92 40.09 96.92 39.81 99.6 42.26 100.69 39.63 101.25 39.35 103.92 38.01 101.59 35.38 102.15"/><polygon class="cls-2" points="48.02 140.68 48.57 138.05 46.25 136.7 48.92 136.42 49.48 133.79 50.57 136.25 53.24 135.97 51.25 137.77 52.34 140.22 50.01 138.88 48.02 140.68"/><polygon class="cls-2" points="35.4 126.37 35.95 123.74 33.63 122.39 36.3 122.11 36.86 119.49 37.95 121.94 40.62 121.66 38.63 123.46 39.72 125.91 37.39 124.57 35.4 126.37"/><polygon class="cls-2" points="71.91 139.62 71.08 137.07 68.39 137.07 70.57 135.49 69.74 132.93 71.91 134.51 74.08 132.93 73.25 135.49 75.43 137.07 72.74 137.07 71.91 139.62"/><polygon class="cls-2" points="97.01 118.42 95.02 116.62 92.69 117.96 93.78 115.51 91.79 113.71 94.46 113.99 95.55 111.54 96.11 114.17 98.78 114.45 96.45 115.79 97.01 118.42"/><polygon class="cls-2" points="78.24 114.6 76.25 112.8 73.92 114.14 75.01 111.69 73.01 109.89 75.69 110.17 76.78 107.72 77.34 110.34 80.01 110.62 77.68 111.97 78.24 114.6"/><polygon class="cls-2" points="62.02 104.87 60.02 103.07 57.7 104.41 58.79 101.96 56.79 100.16 59.47 100.44 60.56 97.99 61.12 100.62 63.79 100.9 61.46 102.24 62.02 104.87"/><polygon class="cls-2" points="17.9 126.31 19.7 124.31 18.35 121.99 20.81 123.08 22.6 121.08 22.32 123.76 24.78 124.85 22.15 125.41 21.87 128.08 20.53 125.75 17.9 126.31"/><polygon class="cls-2" points="37.68 153.91 38.24 151.28 35.92 149.94 38.59 149.66 39.15 147.03 40.24 149.48 42.91 149.2 40.92 151 42.01 153.45 39.68 152.11 37.68 153.91"/><polygon class="cls-2" points="79.06 154.58 78.23 152.03 75.55 152.03 77.72 150.45 76.89 147.89 79.06 149.47 81.24 147.89 80.41 150.45 82.58 152.03 79.89 152.03 79.06 154.58"/><polygon class="cls-2" points="110.96 142.58 108.96 140.78 106.64 142.12 107.73 139.67 105.73 137.87 108.4 138.15 109.5 135.7 110.06 138.33 112.73 138.61 110.4 139.95 110.96 142.58"/><polygon class="cls-2" points="2.5 126.64 4.24 124.59 2.83 122.31 5.31 123.33 7.05 121.28 6.85 123.96 9.34 124.98 6.73 125.61 6.52 128.29 5.11 126.01 2.5 126.64"/><polygon class="cls-2" points="29.78 167.58 30.24 164.93 27.86 163.67 30.52 163.3 30.99 160.65 32.17 163.06 34.83 162.69 32.9 164.56 34.08 166.97 31.71 165.71 29.78 167.58"/><polygon class="cls-2" points="86.54 168.24 85.6 165.72 82.91 165.84 85.02 164.16 84.08 161.65 86.32 163.13 88.42 161.46 87.7 164.05 89.94 165.53 87.26 165.65 86.54 168.24"/><polygon class="cls-2" points="464.49 78.78 461.99 79.77 462.16 82.45 460.45 80.39 457.95 81.38 459.39 79.11 457.67 77.04 460.27 77.71 461.7 75.43 461.88 78.12 464.49 78.78"/><polygon class="cls-2" points="448.19 37.93 446.54 40.05 448.05 42.28 445.52 41.37 443.87 43.49 443.96 40.8 441.43 39.89 444.01 39.14 444.1 36.46 445.6 38.68 448.19 37.93"/><polygon class="cls-2" points="414.98 9.88 414.63 12.54 417.06 13.69 414.42 14.19 414.07 16.85 412.79 14.49 410.15 14.99 411.99 13.03 410.71 10.68 413.13 11.83 414.98 9.88"/><polygon class="cls-2" points="157.14 172.72 156.2 170.2 153.52 170.32 155.62 168.64 154.68 166.13 156.92 167.61 159.02 165.94 158.3 168.53 160.54 170.01 157.86 170.13 157.14 172.72"/><polygon class="cls-2" points="200.67 157.6 198.58 155.9 196.33 157.36 197.29 154.86 195.21 153.16 197.89 153.31 198.86 150.8 199.55 153.4 202.23 153.54 199.98 155 200.67 157.6"/><polygon class="cls-2" points="227.64 122.2 224.98 121.79 223.77 124.19 223.34 121.54 220.68 121.14 223.07 119.9 222.63 117.25 224.54 119.14 226.93 117.91 225.72 120.31 227.64 122.2"/><polygon class="cls-2" points="234.5 81.41 232 82.41 232.18 85.09 230.46 83.02 227.96 84.02 229.4 81.74 227.68 79.68 230.28 80.34 231.72 78.07 231.89 80.75 234.5 81.41"/><polygon class="cls-2" points="219.32 36.97 217.67 39.09 219.18 41.32 216.66 40.4 215.01 42.53 215.09 39.84 212.57 38.93 215.15 38.18 215.23 35.5 216.74 37.72 219.32 36.97"/><polygon class="cls-2" points="202.47 18.18 202.12 20.84 204.55 21.99 201.91 22.49 201.56 25.15 200.28 22.79 197.63 23.29 199.48 21.33 198.2 18.98 200.62 20.13 202.47 18.18"/></g></g></svg>