<svg xmlns="http://www.w3.org/2000/svg" width="142.907" height="82.823" viewBox="0 0 142.907 82.823">
  <g id="Layer_1-2" transform="translate(0.002 0.01)">
    <g id="Group_17" data-name="Group 17" transform="translate(-0.002 -0.01)">
      <g id="Group_14" data-name="Group 14" transform="translate(0 0)">
        <path id="Path_92" data-name="Path 92" d="M98.249,52.479a.259.259,0,0,0-.151-.049c-6.774,0-25.2.2-25.2.2a.963.963,0,0,1-.965-.956l-.149-23.59L71.9,13.748a.115.115,0,0,0-.113-.116l-27.767-.008c-.059,0-.138-.024-.178.005-.122.086-.316.178-.332.295q-.794,4.843-1.556,9.7c-.589,3.693-1.167,7.39-1.767,11.08a1.7,1.7,0,0,0,1.34,2.191c.927.267,1.853.53,2.783.8a1.715,1.715,0,0,0,2.451-1.248,1.98,1.98,0,0,1,3.831.9,2.007,2.007,0,0,1-1.959,1.7c-7.279-.03-14.558-.016-21.836-.016-.1,0-.316.022-.386-.068s.032-.184.089-.238c.224-.216.459-.413.689-.63.322-.305.651-.6.983-.9a58.162,58.162,0,0,0,4.934-4.542.383.383,0,0,1,.651.367,1.445,1.445,0,0,0,.778,1.826c.605.224,1.227.4,1.851.578a.384.384,0,0,0,.465-.511,1.626,1.626,0,0,1-.116-.927c.357-2.31.738-4.617,1.105-6.928q1.106-6.946,2.21-13.9c.138-.856.276-1.713.419-2.591a.383.383,0,0,1,.378-.324l33.368-.057a.383.383,0,0,1,.384.373l.292,10.8V48.283c0,.559.457,1.016,1.991,1.016H93.772a.271.271,0,0,0,.192-.462A33.145,33.145,0,0,1,91.6,46.159a.266.266,0,0,0-.211-.1H79.5c-1.473,0-1.878-.4-1.878-.9,0-.932-.005-1.556-.008-2.4q-.008-3.7-.019-7.4-.012-4.474-.027-8.949l-.016-5.05L77.6,6.826a.114.114,0,0,0-.113-.113H37.938a.383.383,0,0,0-.378.324c-.349,2.178-.7,4.355-1.048,6.552-.059-.046-.092-.059-.1-.081a19.959,19.959,0,0,0-2.4-4.347.616.616,0,0,1-.076-.419c.243-1.581.524-3.156.74-4.739.065-.473.235-.573.681-.57,9.956.011,42.422,0,44.483,0a.1.1,0,0,1,.105.1c.038,2.062.611,33.368.627,37.756,0,.559.457,1.281,1.013,1.281h7.06a.27.27,0,0,0,.232-.408,31.476,31.476,0,0,1-1.518-2.945.267.267,0,0,0-.246-.159H83.57a.271.271,0,0,1-.27-.27v-.357c0-7.6-.062-36.364-.068-38.339a.106.106,0,0,0-.108-.105H31.759a.383.383,0,0,0-.378.324c-.249,1.543-.492,3.069-.729,4.561a.378.378,0,0,1-.581.254C22.478.271,14.843-.007,7.367,5.464,2.579,8.966.282,13.921,0,19.814a.387.387,0,0,0,.386.4H2.973a.387.387,0,0,0,.384-.349c.051-.557.092-1.1.168-1.643a15.466,15.466,0,1,1,27.77,11.294,19.126,19.126,0,0,1-2.921,2.956Q17.147,42.619,5.91,52.744a.852.852,0,0,0-.176.835,4.585,4.585,0,0,0,.238.773c.122.338.408.675.505,1.019.13.457.346.584.821.584q20.815-.024,41.633-.024a18.493,18.493,0,0,0,3.015-.259A18.809,18.809,0,0,0,67.4,35.063,18.859,18.859,0,0,0,46.9,18.4c-.086.008-.173.014-.259.019a.39.39,0,0,1-.411-.454c.038-.23.076-.454.113-.675a.388.388,0,0,1,.378-.322l21.639-.035a.383.383,0,0,1,.384.373l.295,10.756v.019L69.2,54.913a.965.965,0,0,0,.965.956l32.722-.124a.27.27,0,0,0,.111-.516,30.84,30.84,0,0,1-4.75-2.753ZM21.943,42.825a1.135,1.135,0,0,1,.846-.324q12.868.012,25.73.008a5.4,5.4,0,0,0,5.344-5.566,5.246,5.246,0,0,0-5.579-5.174,5.145,5.145,0,0,0-4.5,3.034c-.076.149-.135.3-.2.454-.005.011-.024.016-.113.076.116-.759.219-1.456.33-2.153.17-1.089.351-2.175.513-3.264a.706.706,0,0,1,.411-.586,8.749,8.749,0,1,1,4.755,16.522c-.119.011-.24.014-.362.014H22.305c-.449,0-2.14.014-2.594-.014a.725.725,0,0,1-.281-.076c-.343-.17-.127-.4.035-.6a4.03,4.03,0,0,1,.357-.389c.249-.24.524-.5.781-.732q.677-.608,1.343-1.227Zm24.4-20.969a15.456,15.456,0,1,1,2.488,30.717c-12.261.016-37.107.022-37.269.022-.116,0-.5.043-.521-.143-.019-.157.292-.322.389-.405.211-.181.446-.343.662-.516.446-.359.9-.708,1.346-1.067.324-.262.643-.53.948-.813a1.134,1.134,0,0,1,.838-.33q16.718.012,33.433.008a12.177,12.177,0,0,0,1.413-24.271,12.615,12.615,0,0,0-4.644.359.273.273,0,0,1-.34-.3c.081-.546.159-1.062.24-1.581.041-.267.092-.535.138-.8a.959.959,0,0,1,.875-.875Z" transform="translate(0.002 0.01)" fill="#002868"/>
        <path id="Path_93" data-name="Path 93" d="M348.4,56.56a28.2,28.2,0,1,1,28.2-28.194A28.228,28.228,0,0,1,348.4,56.56Zm0-53.094a24.9,24.9,0,1,0,24.9,24.9,24.927,24.927,0,0,0-24.9-24.9Z" transform="translate(-233.686 -0.121)" fill="#002868"/>
        <path id="Path_94" data-name="Path 94" d="M365.007,67.024a22.047,22.047,0,1,1,22.047-22.047A22.072,22.072,0,0,1,365.007,67.024Zm0-40.8a18.751,18.751,0,1,0,18.751,18.751A18.771,18.771,0,0,0,365.007,26.224Z" transform="translate(-250.297 -16.732)" fill="#002868"/>
        <path id="Path_95" data-name="Path 95" d="M382.355,77.94A15.625,15.625,0,1,1,397.98,62.315,15.642,15.642,0,0,1,382.355,77.94Zm0-27.67A12.045,12.045,0,1,0,394.4,62.315,12.059,12.059,0,0,0,382.355,50.27Z" transform="translate(-267.644 -34.072)" fill="#002868"/>
        <path id="Path_96" data-name="Path 96" d="M246.2,37.95h0Z" transform="translate(-179.68 -27.694)" fill="#002868"/>
        <path id="Path_97" data-name="Path 97" d="M12.269,42.347H8.91a9.736,9.736,0,0,1,.405-3.131,12.164,12.164,0,0,1,23.8,1.859A11.673,11.673,0,0,1,30.3,50.318a34.833,34.833,0,0,1-3.08,2.867Q17.351,62.1,7.481,71c-.1.092-.2.184-.305.27-.389.327-.592.278-.757-.184-.3-.838-.578-1.683-.9-2.513a.473.473,0,0,1,.162-.616Q14,60.466,22.3,52.968c1.613-1.456,3.21-2.934,4.85-4.361a7.549,7.549,0,0,0,2.5-4.642,8.74,8.74,0,1,0-17.308-2.345c-.019.224-.043.451-.07.721ZM4.425,64.373q8.908-8.041,17.819-16.084A34.628,34.628,0,0,0,25.03,45.7a5.1,5.1,0,0,0,.589-5.8,5.156,5.156,0,0,0-5.269-2.786,5.251,5.251,0,0,0-4.439,3.629,14.871,14.871,0,0,0-.308,1.594H19c.024-.143.041-.262.068-.376a1.984,1.984,0,0,1,1.729-1.5,1.962,1.962,0,0,1,2.007,1.173,1.734,1.734,0,0,1-.508,2.148q-6.253,5.641-12.51,11.286Q6.5,58.04,3.207,61.017c-.108.1-.224.316-.186.43.343,1.043.719,2.078,1.108,3.177.138-.116.222-.181.3-.251Z" transform="translate(-2.198 -22.119)" fill="#002868"/>
        <path id="Path_98" data-name="Path 98" d="M4.5,60.6l.222.686H5.44l-.578.424.222.686L4.5,61.973l-.578.424.222-.686-.578-.424h.713Z" transform="translate(-2.605 -44.224)" fill="#fff"/>
        <path id="Path_99" data-name="Path 99" d="M29.745,60.99l.222.686h.713L30.1,62.1l.222.686-.578-.424-.578.424.222-.686-.578-.424h.713Z" transform="translate(-21.025 -44.509)" fill="#fff"/>
        <path id="Path_100" data-name="Path 100" d="M24.695,25.07l.222.686h.713l-.578.424.222.689-.578-.424-.578.424.222-.689-.578-.424h.713Z" transform="translate(-17.34 -18.294)" fill="#fff"/>
        <path id="Path_101" data-name="Path 101" d="M48.265,37.01l.222.686H49.2l-.578.424.222.686-.578-.424-.578.424.222-.686L47.33,37.7h.713Z" transform="translate(-34.542 -27.008)" fill="#fff"/>
        <path id="Path_102" data-name="Path 102" d="M65.9,7.85l.27.67.713-.051-.546.465.27.667L66,9.22l-.546.467.17-.7L65.02,8.6l.713-.051Z" transform="translate(-47.452 -5.726)" fill="#fff"/>
        <path id="Path_103" data-name="Path 103" d="M122.7,2.08l.216.689.713.005-.581.419.216.689-.576-.43-.581.421.227-.686-.575-.427.713.005Z" transform="translate(-88.862 -1.515)" fill="#fff"/>
        <path id="Path_104" data-name="Path 104" d="M201.35,2.08l.216.689.716.005-.581.419.216.689-.576-.43-.581.421.224-.686-.575-.427.716.005Z" transform="translate(-146.262 -1.515)" fill="#fff"/>
        <path id="Path_105" data-name="Path 105" d="M150.94,2.08l.216.689.713.005-.581.419.216.689-.575-.43-.581.421.227-.686L150,2.761l.713.005Z" transform="translate(-109.472 -1.515)" fill="#fff"/>
        <path id="Path_106" data-name="Path 106" d="M253.65,2.08l.216.689.713.005L254,3.193l.216.689-.576-.43-.581.421.227-.686-.576-.427.713.005Z" transform="translate(-184.431 -1.515)" fill="#fff"/>
        <path id="Path_107" data-name="Path 107" d="M298.5,2.08l.216.689.716.005-.584.419.216.689-.573-.43-.584.421.227-.686-.576-.427.716.005Z" transform="translate(-217.163 -1.515)" fill="#fff"/>
        <path id="Path_108" data-name="Path 108" d="M144.96,26.98l.216.689.716.005-.581.419.216.689-.575-.43-.581.421.224-.686-.575-.427.716.005Z" transform="translate(-105.107 -19.688)" fill="#fff"/>
        <path id="Path_109" data-name="Path 109" d="M190.72,28.24l.216.686.713.005-.581.421.216.689-.576-.43-.581.421.227-.686-.575-.43.713.005Z" transform="translate(-138.504 -20.607)" fill="#fff"/>
        <path id="Path_110" data-name="Path 110" d="M213.68,53.27l.216.689.716.005-.581.419.216.689-.576-.427-.581.419.224-.684-.576-.43.716.005Z" transform="translate(-155.26 -38.875)" fill="#fff"/>
        <path id="Path_111" data-name="Path 111" d="M236.28,27.54l.216.689.713.005-.581.419.216.689-.576-.43-.581.421.227-.686-.576-.427.713.005Z" transform="translate(-171.754 -20.096)" fill="#fff"/>
        <path id="Path_112" data-name="Path 112" d="M277.79,28.39l.216.689.713.005-.581.419.216.689-.576-.427-.581.419.227-.684-.576-.43.716.005Z" transform="translate(-202.049 -20.717)" fill="#fff"/>
        <path id="Path_113" data-name="Path 113" d="M299.66,27.54l.216.689.713.005-.581.419.216.689-.576-.43-.581.421.227-.686-.576-.427.713.005Z" transform="translate(-218.01 -20.096)" fill="#fff"/>
        <path id="Path_114" data-name="Path 114" d="M279.33,79.02l.216.686.716.005-.581.421.216.689-.576-.43-.581.421.224-.686-.576-.43.716.005Z" transform="translate(-203.173 -57.667)" fill="#fff"/>
        <path id="Path_115" data-name="Path 115" d="M299.66,62.29l.216.689.713.005-.581.419.216.689-.576-.427-.581.419.227-.684-.576-.43.713.005Z" transform="translate(-218.01 -45.457)" fill="#fff"/>
        <path id="Path_116" data-name="Path 116" d="M167.73,53.25l.216.689.713.005-.581.421.216.686-.575-.427-.581.419.227-.684-.576-.43.713.005Z" transform="translate(-121.725 -38.86)" fill="#fff"/>
        <path id="Path_117" data-name="Path 117" d="M257.11,53.27l.216.689.713.005-.581.419.216.689-.575-.427-.581.419.227-.684-.576-.43.716.005Z" transform="translate(-186.956 -38.875)" fill="#fff"/>
        <path id="Path_118" data-name="Path 118" d="M258.11,101.21l.216.686.713.005-.581.421.216.689-.575-.43-.581.421.227-.686-.576-.43.716.005Z" transform="translate(-187.686 -73.862)" fill="#fff"/>
        <path id="Path_119" data-name="Path 119" d="M279.33,125.48l.216.689.716.005-.581.419.216.689-.576-.427-.581.419.224-.686-.576-.427.716.005Z" transform="translate(-203.173 -91.574)" fill="#fff"/>
        <path id="Path_120" data-name="Path 120" d="M300.9,103.68l.216.689.716,0-.584.421.216.689-.573-.43-.581.421.224-.686-.576-.427.716,0Z" transform="translate(-218.915 -75.664)" fill="#fff"/>
        <path id="Path_121" data-name="Path 121" d="M312.99,147.55l.216.689.716.005-.584.421.216.686-.573-.427-.584.419.227-.684-.576-.43.716.005Z" transform="translate(-227.738 -107.681)" fill="#fff"/>
        <path id="Path_122" data-name="Path 122" d="M258.11,149.14l.216.689.713.005-.581.419.216.689-.575-.427-.581.419.227-.684-.576-.43.716.005Z" transform="translate(-187.686 -108.842)" fill="#fff"/>
        <path id="Path_123" data-name="Path 123" d="M239.58,144.22l.216.689.716.005-.581.419.216.689-.575-.43-.581.421.224-.686-.575-.427.716.005Z" transform="translate(-174.163 -105.251)" fill="#fff"/>
        <path id="Path_124" data-name="Path 124" d="M282.6,171.69l.216.689.716.005-.581.421.216.686-.576-.427-.581.419.224-.684-.576-.43.716.005Z" transform="translate(-205.559 -125.299)" fill="#fff"/>
        <path id="Path_125" data-name="Path 125" d="M312.99,197.28l.216.689.716.005-.584.419.216.689-.573-.43-.584.421.227-.686-.576-.427.716.005Z" transform="translate(-227.738 -143.975)" fill="#fff"/>
        <path id="Path_126" data-name="Path 126" d="M312.99,172.9l.216.689.716.005-.584.419.216.689-.573-.427-.584.419.227-.684-.576-.43.716.005Z" transform="translate(-227.738 -126.182)" fill="#fff"/>
        <path id="Path_127" data-name="Path 127" d="M359.99,196.91l.216.689.716,0-.584.421.216.689-.573-.43-.581.421.224-.686-.576-.427.716,0Z" transform="translate(-262.039 -143.705)" fill="#fff"/>
        <path id="Path_128" data-name="Path 128" d="M421.74,2.08l.216.689.713.005-.581.419.216.689-.576-.43-.581.421.227-.686-.576-.427.713.005Z" transform="translate(-307.106 -1.515)" fill="#fff"/>
        <path id="Path_129" data-name="Path 129" d="M372.806,15.97l.53.489.621-.354-.292.654.532.489-.713-.084-.292.654-.149-.705-.713-.084.621-.354Z" transform="translate(-271.731 -11.652)" fill="#fff"/>
        <path id="Path_130" data-name="Path 130" d="M337.57,51.849l.7.157.362-.616.076.713.7.159-.659.284.076.713-.481-.538-.659.284.362-.619Z" transform="translate(-246.363 -37.502)" fill="#fff"/>
        <path id="Path_131" data-name="Path 131" d="M322.91,101.149l.686-.216.005-.713.421.581.689-.216-.43.575.422.581-.686-.227-.43.575.005-.713Z" transform="translate(-235.664 -73.139)" fill="#fff"/>
        <path id="Path_132" data-name="Path 132" d="M336.11,150.419l.486-.53-.351-.621.654.292.489-.53-.084.711.654.294-.705.146-.084.713-.354-.621Z" transform="translate(-245.298 -108.762)" fill="#fff"/>
        <path id="Path_133" data-name="Path 133" d="M372.789,187.823l.157-.705-.616-.362.713-.073.157-.7.284.657.713-.073-.538.481.284.659-.616-.362Z" transform="translate(-271.731 -135.728)" fill="#fff"/>
        <path id="Path_134" data-name="Path 134" d="M424.3,201.042l-.216-.686-.716-.005.581-.421-.216-.689.576.43.581-.421-.224.686.575.43-.716-.005Z" transform="translate(-308.981 -145.406)" fill="#fff"/>
        <path id="Path_135" data-name="Path 135" d="M473.579,185.948l-.53-.486-.621.351.292-.654-.53-.489.711.084.294-.654.146.705.713.084-.621.354Z" transform="translate(-344.611 -134.356)" fill="#fff"/>
        <path id="Path_136" data-name="Path 136" d="M507.653,148.458l-.7-.157-.362.616-.073-.713-.705-.157.659-.284-.073-.713.481.538.657-.284-.359.616Z" transform="translate(-369.147 -107.317)" fill="#fff"/>
        <path id="Path_137" data-name="Path 137" d="M521.882,100.5l-.689.216-.005.713-.419-.581-.689.216.427-.575-.419-.581.684.227.43-.575-.005.713Z" transform="translate(-379.562 -72.658)" fill="#fff"/>
        <path id="Path_138" data-name="Path 138" d="M506.818,50.386l-.489.53.354.621-.654-.292-.489.53.084-.711-.654-.295.705-.146.084-.713.354.621Z" transform="translate(-368.534 -36.422)" fill="#fff"/>
        <path id="Path_139" data-name="Path 139" d="M470.88,15.15l-.157.7.616.362-.713.073-.157.705-.286-.659-.713.073.54-.481-.286-.657.619.359Z" transform="translate(-342.626 -11.054)" fill="#fff"/>
        <path id="Path_140" data-name="Path 140" d="M422.03,25.41l.216.689.716.005-.581.421.216.686-.576-.427-.581.419.224-.684-.576-.43.716.005Z" transform="translate(-307.317 -18.542)" fill="#fff"/>
        <path id="Path_141" data-name="Path 141" d="M384.066,36.52l.532.489.621-.354-.294.657.532.486-.713-.084-.292.657-.149-.708-.713-.084.621-.351Z" transform="translate(-279.949 -26.65)" fill="#fff"/>
        <path id="Path_142" data-name="Path 142" d="M356.94,64.519l.7.157L358,64.06l.073.713.705.157-.659.284.073.713-.481-.538-.657.284.362-.616Z" transform="translate(-260.5 -46.749)" fill="#fff"/>
        <path id="Path_143" data-name="Path 143" d="M345.93,102.1l.689-.216.005-.713.421.581.686-.216-.427.576.419.581-.684-.227-.43.575.005-.713Z" transform="translate(-252.464 -73.833)" fill="#fff"/>
        <path id="Path_144" data-name="Path 144" d="M357.04,140.8l.489-.532-.354-.621.657.294.486-.532-.084.713.657.292-.708.149-.084.711-.351-.621Z" transform="translate(-260.573 -101.741)" fill="#fff"/>
        <path id="Path_145" data-name="Path 145" d="M386.049,167.935l.157-.705-.616-.362.713-.073.157-.705.284.659.713-.073-.538.481.284.659-.616-.362Z" transform="translate(-281.409 -121.212)" fill="#fff"/>
        <path id="Path_146" data-name="Path 146" d="M424.3,178.042l-.216-.689-.716-.005.581-.419-.216-.689.576.427.581-.419-.224.684.575.43-.716-.005Z" transform="translate(-308.981 -128.62)" fill="#fff"/>
        <path id="Path_147" data-name="Path 147" d="M462.281,166.8l-.532-.489-.621.354.294-.657-.532-.486.713.084.292-.657.149.708.711.084-.621.351Z" transform="translate(-336.364 -120.38)" fill="#fff"/>
        <path id="Path_148" data-name="Path 148" d="M489.473,138.758l-.7-.157-.362.616-.073-.713-.705-.157.659-.284-.076-.713.481.538.659-.284-.362.616Z" transform="translate(-355.879 -100.237)" fill="#fff"/>
        <path id="Path_149" data-name="Path 149" d="M499.572,100.5l-.689.216,0,.713-.421-.581-.689.216.43-.575-.422-.581.686.227.427-.575,0,.713Z" transform="translate(-363.279 -72.658)" fill="#fff"/>
        <path id="Path_150" data-name="Path 150" d="M488.338,62.536l-.489.53.354.621-.654-.292-.489.53.084-.711-.654-.295.705-.146.084-.713.354.621Z" transform="translate(-355.047 -45.29)" fill="#fff"/>
        <path id="Path_151" data-name="Path 151" d="M460.29,35.4l-.157.705.616.362-.713.073-.159.705-.284-.659-.713.073.54-.481-.286-.659.619.362Z" transform="translate(-334.897 -25.833)" fill="#fff"/>
        <path id="Path_152" data-name="Path 152" d="M422.03,49.94l.216.686.716.005-.581.421.216.689-.576-.43-.581.421.224-.686-.576-.43.716.005Z" transform="translate(-307.317 -36.444)" fill="#fff"/>
        <path id="Path_153" data-name="Path 153" d="M396.466,57.96l.53.489.621-.354-.292.657.53.486-.711-.084-.295.657L396.7,59.1l-.713-.084.621-.351Z" transform="translate(-288.999 -42.297)" fill="#fff"/>
        <path id="Path_154" data-name="Path 154" d="M378.53,77.089l.7.157.362-.616.073.713.705.157-.659.284.073.713-.481-.538-.657.284.359-.616Z" transform="translate(-276.256 -55.923)" fill="#fff"/>
        <path id="Path_155" data-name="Path 155" d="M370.48,102.639l.689-.216.005-.713.419.581.689-.216-.427.575.419.581L371.59,103l-.43.575.005-.713Z" transform="translate(-270.381 -74.227)" fill="#fff"/>
        <path id="Path_156" data-name="Path 156" d="M378.51,130.641l.489-.53-.351-.621.654.292.489-.532-.084.713.654.294-.708.146-.081.713-.354-.621Z" transform="translate(-276.242 -94.326)" fill="#fff"/>
        <path id="Path_157" data-name="Path 157" d="M398.859,148.255l.157-.705-.616-.362.713-.073.157-.705.284.659.713-.073-.538.481.284.659-.616-.362Z" transform="translate(-290.758 -106.849)" fill="#fff"/>
        <path id="Path_158" data-name="Path 158" d="M424.3,154.282l-.216-.689-.716-.005.581-.421-.216-.686.576.427.581-.419-.224.684.575.43-.716-.005Z" transform="translate(-308.981 -111.279)" fill="#fff"/>
        <path id="Path_159" data-name="Path 159" d="M450.771,145.068l-.53-.489-.621.354.292-.654-.532-.489.713.084.294-.654.146.705.713.084-.621.354Z" transform="translate(-327.964 -104.521)" fill="#fff"/>
        <path id="Path_160" data-name="Path 160" d="M468.773,125.888l-.7-.157-.362.616-.073-.713-.705-.157.659-.284-.076-.713.481.538.659-.284-.362.616Z" transform="translate(-340.772 -90.845)" fill="#fff"/>
        <path id="Path_161" data-name="Path 161" d="M475.342,99.91l-.686.216-.005.713-.421-.581-.689.216.43-.575-.421-.581.686.227.43-.575-.005.713Z" transform="translate(-345.596 -72.227)" fill="#fff"/>
        <path id="Path_162" data-name="Path 162" d="M467.191,74.336l-.489.53.354.621-.657-.292-.486.532.084-.713-.657-.292.708-.149.084-.713.351.621Z" transform="translate(-339.612 -53.901)" fill="#fff"/>
        <path id="Path_163" data-name="Path 163" d="M448.018,56.4l-.157.7.616.362-.713.076-.157.7-.284-.659-.713.076.538-.481-.284-.659.616.362Z" transform="translate(-325.942 -41.159)" fill="#fff"/>
        <path id="Path_164" data-name="Path 164" d="M259.79,197.08l.216.686.713.005-.581.421.216.689-.575-.43-.581.421.227-.686-.576-.43.713.005Z" transform="translate(-188.912 -143.829)" fill="#fff"/>
        <path id="Path_165" data-name="Path 165" d="M156.65,98.5l.216.689.713.005-.581.419.216.689-.576-.43-.581.421.227-.686-.575-.427.713.005Z" transform="translate(-113.639 -71.884)" fill="#fff"/>
        <path id="Path_166" data-name="Path 166" d="M188.1,96.46l.216.689.713.005-.581.419.216.689-.576-.43-.581.421.227-.686-.575-.427.713.005Z" transform="translate(-136.592 -70.395)" fill="#fff"/>
        <path id="Path_167" data-name="Path 167" d="M214.77,124.48l.216.686.716.005-.581.421.216.689-.576-.43-.581.421.224-.686-.576-.43.716.005Z" transform="translate(-156.056 -90.845)" fill="#fff"/>
        <path id="Path_168" data-name="Path 168" d="M204.82,161.11l.213.689.716.005-.581.419.216.689-.576-.427-.581.419.224-.684-.573-.43.713.005Z" transform="translate(-148.794 -117.578)" fill="#fff"/>
        <path id="Path_169" data-name="Path 169" d="M223.48,178.63l.216.686.713.005-.581.421.216.689-.575-.43-.581.421.227-.686-.576-.43.713.005Z" transform="translate(-162.412 -130.364)" fill="#fff"/>
        <path id="Path_170" data-name="Path 170" d="M194.18,195.91l.216.689.713,0-.581.421.216.689-.575-.43-.581.421.227-.686-.576-.427.713,0Z" transform="translate(-141.029 -142.975)" fill="#fff"/>
        <path id="Path_171" data-name="Path 171" d="M164.95,172.43l.216.689.713,0-.581.421.216.689-.575-.43-.581.421.227-.686-.576-.427.713,0Z" transform="translate(-119.696 -125.839)" fill="#fff"/>
        <path id="Path_172" data-name="Path 172" d="M156.31,197.08l.213.686.716.005-.581.421.216.689-.575-.43-.581.421.224-.686-.573-.43.713.005Z" transform="translate(-113.391 -143.829)" fill="#fff"/>
        <path id="Path_173" data-name="Path 173" d="M122.7,172.9l.216.689.713.005-.581.419.216.689-.576-.43-.581.421.227-.686-.575-.427.713.005Z" transform="translate(-88.862 -126.182)" fill="#fff"/>
        <path id="Path_174" data-name="Path 174" d="M105.02,197.28l.216.689.713.005-.581.419.216.689-.575-.43-.581.421.227-.686-.575-.427.713.005Z" transform="translate(-75.959 -143.975)" fill="#fff"/>
        <path id="Path_175" data-name="Path 175" d="M108.79,146.87l.216.689.713,0-.581.421.216.689-.575-.43-.581.421.227-.686-.576-.427.713,0Z" transform="translate(-78.71 -107.185)" fill="#fff"/>
        <path id="Path_176" data-name="Path 176" d="M154.4,147.55l.216.689.713.005-.581.421.216.686-.576-.427-.581.419.227-.684-.575-.43.713.005Z" transform="translate(-111.997 -107.681)" fill="#fff"/>
        <path id="Path_177" data-name="Path 177" d="M191.09,135.55l.216.689.716.005-.581.419.216.689-.575-.427-.581.419.224-.684-.576-.43.716.005Z" transform="translate(-138.774 -98.924)" fill="#fff"/>
        <path id="Path_178" data-name="Path 178" d="M77.17,172.64l.216.689.716.005-.581.421.216.686-.576-.427-.581.419.224-.684-.575-.43.716.005Z" transform="translate(-55.633 -125.993)" fill="#fff"/>
        <path id="Path_179" data-name="Path 179" d="M61.12,196.94l.216.686.716.005-.581.421.213.689-.573-.43-.581.421.224-.686-.575-.43.716.005Z" transform="translate(-43.92 -143.727)" fill="#fff"/>
        <path id="Path_180" data-name="Path 180" d="M161.6,129.37l.216.689.713.005-.581.419.216.689-.576-.427-.581.419.227-.686-.575-.427.716.005Z" transform="translate(-117.252 -94.413)" fill="#fff"/>
        <path id="Path_181" data-name="Path 181" d="M201.89,75.68l.216.689.713.005-.581.419.216.689-.575-.43-.581.421.227-.686-.576-.427.713.005Z" transform="translate(-146.656 -55.23)" fill="#fff"/>
        <path id="Path_182" data-name="Path 182" d="M229.65,97.01l.216.689.713,0-.581.421.216.689-.576-.43-.581.421.227-.686-.575-.427.713,0Z" transform="translate(-166.915 -70.797)" fill="#fff"/>
        <path id="Path_183" data-name="Path 183" d="M161.6,72.35l.216.686.713.005-.581.421.216.689-.576-.43-.581.421.227-.686-.575-.43.716.005Z" transform="translate(-117.252 -52.799)" fill="#fff"/>
        <path id="Path_184" data-name="Path 184" d="M77.534,35.19l.27.67.713-.054-.546.467.27.667-.608-.381-.546.465.17-.7-.608-.381.713-.051Z" transform="translate(-55.94 -25.679)" fill="#fff"/>
        <path id="Path_185" data-name="Path 185" d="M109.414,24.8l.554.462.6-.381-.262.667.554.465-.716-.051-.262.667-.181-.7-.713-.049.6-.381Z" transform="translate(-79.542 -18.097)" fill="#fff"/>
        <path id="Path_186" data-name="Path 186" d="M103.584,61.69l.554.462.605-.381-.262.667.554.462-.716-.049-.262.667-.181-.7-.716-.051.605-.381Z" transform="translate(-75.287 -45.02)" fill="#fff"/>
        <path id="Path_187" data-name="Path 187" d="M133.349,68.99l.57.446.592-.4-.24.675.567.446-.716-.027-.24.675-.2-.692-.719-.027.592-.4Z" transform="translate(-97.036 -50.347)" fill="#fff"/>
        <path id="Path_188" data-name="Path 188" d="M95.569,98.48l.567.446.592-.4-.24.675.57.446-.719-.027-.24.675-.2-.692-.716-.027.592-.4Z" transform="translate(-69.463 -71.869)" fill="#fff"/>
        <path id="Path_189" data-name="Path 189" d="M58.679,61.59l.57.446.589-.4-.238.678.567.443-.716-.027-.24.675-.2-.692-.719-.027.592-.4Z" transform="translate(-42.54 -44.947)" fill="#fff"/>
        <path id="Path_190" data-name="Path 190" d="M74.159,82.61l.567.443.592-.4-.24.675.567.446-.716-.027-.24.675-.2-.692L73.77,83.7l.592-.4Z" transform="translate(-53.838 -60.287)" fill="#fff"/>
        <path id="Path_191" data-name="Path 191" d="M114.87,113.416l.711.119.33-.635.111.711.711.119-.643.319.113.708-.511-.511-.643.316.33-.632Z" transform="translate(-83.833 -82.393)" fill="#fff"/>
        <path id="Path_192" data-name="Path 192" d="M56.63,133.223l.711.122.33-.635.111.708.711.119-.643.319.111.708-.508-.511-.643.319.33-.635Z" transform="translate(-41.329 -96.851)" fill="#fff"/>
        <path id="Path_193" data-name="Path 193" d="M39.15,114.2l.713.119.327-.635.113.708.711.122-.643.316.111.711-.508-.513-.643.319.33-.635Z" transform="translate(-28.572 -82.963)" fill="#fff"/>
        <path id="Path_194" data-name="Path 194" d="M71.19,154.186l.711.119.33-.635.111.711.711.119-.643.319.111.708-.508-.513-.643.319.33-.635Z" transform="translate(-51.955 -112.148)" fill="#fff"/>
        <path id="Path_195" data-name="Path 195" d="M17.61,168.676l.711.119.33-.635.111.711.711.119-.643.319.111.708-.508-.513-.643.319.33-.635Z" transform="translate(-12.852 -122.723)" fill="#fff"/>
        <path id="Path_196" data-name="Path 196" d="M7.12,142.666l.713.119.327-.635.111.708.713.119-.643.319.111.708-.508-.511-.643.319.33-.635Z" transform="translate(-5.196 -103.74)" fill="#fff"/>
        <path id="Path_197" data-name="Path 197" d="M29.046,191.73l.532.432.567-.373-.238.638.532.43-.681-.035-.238.638-.181-.659-.681-.038.567-.37Z" transform="translate(-20.916 -139.925)" fill="#fff"/>
      </g>
      <g id="Group_15" data-name="Group 15" transform="translate(23.104 60.149)">
        <path id="Path_198" data-name="Path 198" d="M85.637,235.536v-1.943l4.539-4.2c.386-.373.711-.711.975-1.008a3.835,3.835,0,0,0,.6-.881,2.144,2.144,0,0,0,.205-.938,1.782,1.782,0,0,0-.257-.967,1.727,1.727,0,0,0-.7-.63,2.232,2.232,0,0,0-1-.222,2.142,2.142,0,0,0-1.021.238,1.613,1.613,0,0,0-.673.678,2.211,2.211,0,0,0-.238,1.051H85.51a4.055,4.055,0,0,1,.567-2.172,3.807,3.807,0,0,1,1.589-1.427,5.263,5.263,0,0,1,2.353-.505,5.652,5.652,0,0,1,2.388.481,3.8,3.8,0,0,1,1.583,1.335,3.442,3.442,0,0,1,.567,1.956,3.77,3.77,0,0,1-.284,1.424,5.981,5.981,0,0,1-1.005,1.559,22.585,22.585,0,0,1-2.037,2.051l-1.862,1.824v.086h5.355v2.2H85.637Z" transform="translate(-85.51 -222.61)" fill="#bf0a30"/>
        <path id="Path_199" data-name="Path 199" d="M138.115,236.186a5.44,5.44,0,0,1-2.351-.486,4.109,4.109,0,0,1-1.635-1.337,3.443,3.443,0,0,1-.63-1.956h2.615a1.6,1.6,0,0,0,.624,1.2,2.139,2.139,0,0,0,1.375.459,2.2,2.2,0,0,0,1.124-.284,1.979,1.979,0,0,0,.765-.792,2.6,2.6,0,0,0-.005-2.351,2.05,2.05,0,0,0-.781-.8,2.264,2.264,0,0,0-1.14-.292,2.677,2.677,0,0,0-1.086.23,1.948,1.948,0,0,0-.819.63l-2.4-.43.605-6.722h7.795v2.2H136.6l-.33,3.194h.076a2.461,2.461,0,0,1,1.016-.784,3.59,3.59,0,0,1,1.518-.311,3.862,3.862,0,0,1,3.48,2.026,4.758,4.758,0,0,1-.078,4.458,4.212,4.212,0,0,1-1.675,1.57,5.233,5.233,0,0,1-2.494.57Z" transform="translate(-120.534 -223.084)" fill="#bf0a30"/>
        <path id="Path_200" data-name="Path 200" d="M186.813,223.253V236h-2.7V225.811h-.076l-2.921,1.829v-2.391l3.156-2h2.534Z" transform="translate(-155.288 -223.077)" fill="#bf0a30"/>
        <path id="Path_201" data-name="Path 201" d="M224.489,235.817a4.834,4.834,0,0,1-2.761-.792,4.958,4.958,0,0,1-1.775-2.272,10.639,10.639,0,0,1,.005-7.136,5.032,5.032,0,0,1,7.287-2.234,4.929,4.929,0,0,1,1.778,2.24,8.963,8.963,0,0,1,.616,3.55,9.3,9.3,0,0,1-.619,3.585,4.953,4.953,0,0,1-1.772,2.272,4.768,4.768,0,0,1-2.759.784Zm0-2.234a1.977,1.977,0,0,0,1.751-1.1,6.609,6.609,0,0,0,.648-3.307,8.467,8.467,0,0,0-.295-2.415,3.151,3.151,0,0,0-.835-1.451,1.829,1.829,0,0,0-1.267-.486,1.966,1.966,0,0,0-1.743,1.089,6.494,6.494,0,0,0-.659,3.261,8.62,8.62,0,0,0,.295,2.451,3.16,3.16,0,0,0,.838,1.47,1.843,1.843,0,0,0,1.27.489Z" transform="translate(-183.181 -222.61)" fill="#bf0a30"/>
        <path id="Path_202" data-name="Path 202" d="M270.9,263.015a1.494,1.494,0,0,1-1.494-1.494,1.414,1.414,0,0,1,.438-1.046,1.45,1.45,0,0,1,1.056-.435,1.435,1.435,0,0,1,1.046.435,1.45,1.45,0,0,1,.24,1.8,1.6,1.6,0,0,1-.543.54,1.405,1.405,0,0,1-.74.2Z" transform="translate(-219.723 -249.927)" fill="#bf0a30"/>
        <path id="Path_203" data-name="Path 203" d="M306.292,229.162a7.377,7.377,0,0,1-.789,3.548,5.492,5.492,0,0,1-2.143,2.232,6.411,6.411,0,0,1-6.093-.005,5.5,5.5,0,0,1-2.134-2.234,8.416,8.416,0,0,1,0-7.092,5.49,5.49,0,0,1,2.134-2.232,6.431,6.431,0,0,1,6.093,0,5.509,5.509,0,0,1,2.143,2.232,7.412,7.412,0,0,1,.789,3.55Zm-2.734,0a5.72,5.72,0,0,0-.4-2.278,3.109,3.109,0,0,0-1.129-1.408,3.278,3.278,0,0,0-3.41,0,3.092,3.092,0,0,0-1.129,1.408,6.644,6.644,0,0,0,0,4.555,3.092,3.092,0,0,0,1.129,1.408,3.278,3.278,0,0,0,3.41,0,3.092,3.092,0,0,0,1.129-1.408A5.738,5.738,0,0,0,303.558,229.162Z" transform="translate(-237.924 -222.61)" fill="#bf0a30"/>
        <path id="Path_204" data-name="Path 204" d="M359.759,231.065c.041-.016.081-.032.119-.051a3.543,3.543,0,0,0,1.583-1.4,4.139,4.139,0,0,0,.548-2.183,4.315,4.315,0,0,0-.538-2.2,3.621,3.621,0,0,0-1.564-1.451,5.436,5.436,0,0,0-2.467-.513H352.41v12.75h2.7V231.5h1.967l2.415,4.52h2.975Zm-2.823-1.732h-1.829v-3.861h1.818a3.158,3.158,0,0,1,1.291.23,1.594,1.594,0,0,1,.765.662,2.118,2.118,0,0,1,.251,1.07,2.035,2.035,0,0,1-.251,1.054,1.539,1.539,0,0,1-.762.635A3.38,3.38,0,0,1,356.936,229.333Z" transform="translate(-280.298 -223.092)" fill="#bf0a30"/>
        <path id="Path_205" data-name="Path 205" d="M409.328,226.916a2.821,2.821,0,0,0-.367-.805,2.284,2.284,0,0,0-.576-.6,2.606,2.606,0,0,0-.773-.378,3.329,3.329,0,0,0-.956-.13,3.047,3.047,0,0,0-1.716.486,3.177,3.177,0,0,0-1.148,1.41,5.555,5.555,0,0,0-.411,2.256,5.687,5.687,0,0,0,.405,2.267,3.161,3.161,0,0,0,1.146,1.424,3.122,3.122,0,0,0,1.751.489,3.431,3.431,0,0,0,1.564-.327,2.359,2.359,0,0,0,1-.924,2.787,2.787,0,0,0,.346-1.413l.548.081h-3.288v-2.029h5.336v1.6a5.586,5.586,0,0,1-.711,2.886,4.789,4.789,0,0,1-1.956,1.853,6.049,6.049,0,0,1-2.85.651,6.119,6.119,0,0,1-3.15-.794,5.43,5.43,0,0,1-2.113-2.261,7.492,7.492,0,0,1-.757-3.483,7.944,7.944,0,0,1,.451-2.767,5.882,5.882,0,0,1,1.267-2.064,5.461,5.461,0,0,1,1.9-1.289,6.157,6.157,0,0,1,2.348-.443,6.344,6.344,0,0,1,2.018.313,5.49,5.49,0,0,1,1.659.886,4.832,4.832,0,0,1,1.186,1.359,4.639,4.639,0,0,1,.592,1.735h-2.74Z" transform="translate(-315.504 -222.617)" fill="#bf0a30"/>
      </g>
      <g id="Group_16" data-name="Group 16" transform="translate(23.107 78.105)">
        <path id="Path_206" data-name="Path 206" d="M89.378,290.561h-.554a1.139,1.139,0,0,0-.17-.419,1.173,1.173,0,0,0-.295-.305,1.235,1.235,0,0,0-.384-.186,1.573,1.573,0,0,0-.438-.062,1.388,1.388,0,0,0-.751.211,1.433,1.433,0,0,0-.532.619,2.646,2.646,0,0,0,0,2,1.451,1.451,0,0,0,.532.619,1.388,1.388,0,0,0,.751.211,1.572,1.572,0,0,0,.438-.062A1.234,1.234,0,0,0,88.36,293a1.173,1.173,0,0,0,.295-.305,1.159,1.159,0,0,0,.17-.419h.554a1.924,1.924,0,0,1-.227.627,1.674,1.674,0,0,1-.411.47,1.805,1.805,0,0,1-.551.294,2.042,2.042,0,0,1-.651.1,1.9,1.9,0,0,1-1.04-.286,1.968,1.968,0,0,1-.716-.813,3.116,3.116,0,0,1,0-2.5,1.968,1.968,0,0,1,.716-.813,1.928,1.928,0,0,1,1.04-.286,2.053,2.053,0,0,1,.651.1,1.805,1.805,0,0,1,.551.294,1.718,1.718,0,0,1,.411.47,1.782,1.782,0,0,1,.227.63Z" transform="translate(-85.52 -289.07)" fill="#231f20"/>
        <path id="Path_207" data-name="Path 207" d="M109.777,291.421a2.773,2.773,0,0,1-.262,1.251,1.968,1.968,0,0,1-.716.813,1.927,1.927,0,0,1-1.04.286,1.9,1.9,0,0,1-1.04-.286,1.951,1.951,0,0,1-.716-.813,3.117,3.117,0,0,1,0-2.5,1.968,1.968,0,0,1,.716-.813,2.032,2.032,0,0,1,2.08,0,1.951,1.951,0,0,1,.716.813A2.8,2.8,0,0,1,109.777,291.421Zm-.535,0a2.278,2.278,0,0,0-.2-1,1.469,1.469,0,0,0-.532-.619,1.444,1.444,0,0,0-1.5,0,1.433,1.433,0,0,0-.532.619,2.646,2.646,0,0,0,0,2,1.451,1.451,0,0,0,.532.619,1.444,1.444,0,0,0,1.5,0,1.433,1.433,0,0,0,.532-.619A2.317,2.317,0,0,0,109.242,291.421Z" transform="translate(-100.277 -289.07)" fill="#231f20"/>
        <path id="Path_208" data-name="Path 208" d="M127.413,289.31h.662l1.554,3.793h.054l1.554-3.793h.662v4.572h-.519v-3.475h-.046l-1.429,3.475h-.5l-1.429-3.475h-.046v3.475h-.519V289.31Z" transform="translate(-116.092 -289.245)" fill="#231f20"/>
        <path id="Path_209" data-name="Path 209" d="M151.4,289.31h.662l1.554,3.793h.054l1.554-3.793h.662v4.572h-.519v-3.475h-.046l-1.429,3.475h-.5l-1.429-3.475h-.046v3.475H151.4V289.31Z" transform="translate(-133.6 -289.245)" fill="#231f20"/>
        <path id="Path_210" data-name="Path 210" d="M175.954,289.31v4.572H175.4V289.31Z" transform="translate(-151.116 -289.245)" fill="#231f20"/>
        <path id="Path_211" data-name="Path 211" d="M183.92,289.792V289.3h3.429v.492h-1.437v4.08h-.554v-4.08Z" transform="translate(-157.334 -289.238)" fill="#231f20"/>
        <path id="Path_212" data-name="Path 212" d="M212.01,289.792V289.3h3.429v.492H214v4.08h-.554v-4.08Z" transform="translate(-177.834 -289.238)" fill="#231f20"/>
        <path id="Path_213" data-name="Path 213" d="M233.857,291.421a2.773,2.773,0,0,1-.262,1.251,1.968,1.968,0,0,1-.716.813,1.927,1.927,0,0,1-1.04.286,1.9,1.9,0,0,1-1.04-.286,1.951,1.951,0,0,1-.716-.813,3.117,3.117,0,0,1,0-2.5,1.968,1.968,0,0,1,.716-.813,1.927,1.927,0,0,1,1.04-.286,1.9,1.9,0,0,1,1.04.286,1.951,1.951,0,0,1,.716.813A2.8,2.8,0,0,1,233.857,291.421Zm-.535,0a2.278,2.278,0,0,0-.2-1,1.469,1.469,0,0,0-.532-.619,1.444,1.444,0,0,0-1.5,0,1.433,1.433,0,0,0-.532.619,2.646,2.646,0,0,0,0,2,1.451,1.451,0,0,0,.532.619,1.444,1.444,0,0,0,1.5,0,1.433,1.433,0,0,0,.532-.619A2.317,2.317,0,0,0,233.322,291.421Z" transform="translate(-190.832 -289.07)" fill="#231f20"/>
        <path id="Path_214" data-name="Path 214" d="M261.333,289.31h.662l1.554,3.793h.054l1.554-3.793h.662v4.572H265.3v-3.475h-.046l-1.429,3.475h-.5l-1.429-3.475h-.046v3.475h-.519V289.31Z" transform="translate(-213.829 -289.245)" fill="#231f20"/>
        <path id="Path_215" data-name="Path 215" d="M284.461,293.882h-.581l1.678-4.572h.57l1.678,4.572h-.581l-1.367-3.847h-.035l-1.367,3.847Zm.213-1.786h2.34v.492h-2.34Z" transform="translate(-230.286 -289.245)" fill="#231f20"/>
        <path id="Path_216" data-name="Path 216" d="M305.78,293.882h-1.41V289.31h1.473a2.243,2.243,0,0,1,1.137.273,1.8,1.8,0,0,1,.724.784,3.091,3.091,0,0,1,0,2.448,1.8,1.8,0,0,1-.74.789,2.366,2.366,0,0,1-1.183.276Zm-.857-.492h.821a1.835,1.835,0,0,0,.94-.219,1.361,1.361,0,0,0,.557-.624,2.323,2.323,0,0,0,.184-.962,2.276,2.276,0,0,0-.181-.954,1.323,1.323,0,0,0-.54-.616,1.719,1.719,0,0,0-.894-.216h-.883v3.588Z" transform="translate(-245.24 -289.245)" fill="#231f20"/>
        <path id="Path_217" data-name="Path 217" d="M324.39,293.882V289.31h2.759v.492h-2.2v1.545h2.062v.492h-2.062v1.554h2.243v.492h-2.794Z" transform="translate(-259.851 -289.245)" fill="#231f20"/>
        <path id="Path_218" data-name="Path 218" d="M352,289.31v4.572h-.554V289.31Z" transform="translate(-279.6 -289.245)" fill="#231f20"/>
        <path id="Path_219" data-name="Path 219" d="M364.526,289.31v4.572h-.535l-2.491-3.588h-.046v3.588H360.9V289.31h.535l2.5,3.6h.046v-3.6h.543Z" transform="translate(-286.496 -289.245)" fill="#231f20"/>
        <path id="Path_220" data-name="Path 220" d="M394.576,289.31h.554v3.026a1.591,1.591,0,0,1-.219.835,1.541,1.541,0,0,1-.619.578,2.191,2.191,0,0,1-1.875,0,1.524,1.524,0,0,1-.619-.578,1.6,1.6,0,0,1-.219-.835V289.31h.554v2.983a1.163,1.163,0,0,0,.149.594,1.023,1.023,0,0,0,.422.408,1.519,1.519,0,0,0,1.31,0,1.04,1.04,0,0,0,.421-.408,1.189,1.189,0,0,0,.146-.594V289.31Z" transform="translate(-308.887 -289.245)" fill="#231f20"/>
        <path id="Path_221" data-name="Path 221" d="M414.094,290.292a.7.7,0,0,0-.327-.527,1.251,1.251,0,0,0-.7-.186,1.333,1.333,0,0,0-.53.1.835.835,0,0,0-.351.27.647.647,0,0,0-.127.392.542.542,0,0,0,.089.313.755.755,0,0,0,.227.216,1.5,1.5,0,0,0,.289.14c.1.038.195.065.278.089l.465.124q.178.049.4.13a1.868,1.868,0,0,1,.422.224,1.2,1.2,0,0,1,.335.362,1.057,1.057,0,0,1,.132.543,1.207,1.207,0,0,1-.195.67,1.343,1.343,0,0,1-.562.476,2.051,2.051,0,0,1-.9.176,2.085,2.085,0,0,1-.848-.159,1.359,1.359,0,0,1-.562-.44,1.249,1.249,0,0,1-.23-.659h.57a.7.7,0,0,0,.176.427.942.942,0,0,0,.389.251,1.552,1.552,0,0,0,.508.081,1.53,1.53,0,0,0,.57-.1.988.988,0,0,0,.4-.289.692.692,0,0,0,.149-.438.54.54,0,0,0-.127-.37.938.938,0,0,0-.335-.232,3.793,3.793,0,0,0-.449-.157l-.562-.159a2.081,2.081,0,0,1-.848-.44.967.967,0,0,1-.313-.748,1.11,1.11,0,0,1,.208-.67,1.362,1.362,0,0,1,.562-.446,1.918,1.918,0,0,1,.792-.159,1.875,1.875,0,0,1,.786.157,1.385,1.385,0,0,1,.546.43,1.07,1.07,0,0,1,.213.619H414.1Z" transform="translate(-323.352 -289.085)" fill="#231f20"/>
        <path id="Path_222" data-name="Path 222" d="M429.381,293.882H428.8l1.678-4.572h.57l1.678,4.572h-.581l-1.367-3.847h-.035l-1.367,3.847Zm.213-1.786h2.34v.492h-2.34Z" transform="translate(-336.051 -289.245)" fill="#231f20"/>
      </g>
    </g>
  </g>
</svg>
